<?xml version="1.0" encoding="UTF-8" standalone="no"?>
<svg
   viewBox="0 0 228.66 39.08"
   version="1.1"
   id="svg429"
   sodipodi:docname="navbar-logo.svg"
   inkscape:version="1.1.1 (3bf5ae0d25, 2021-09-20)"
   xmlns:inkscape="http://www.inkscape.org/namespaces/inkscape"
   xmlns:sodipodi="http://sodipodi.sourceforge.net/DTD/sodipodi-0.dtd"
   xmlns="http://www.w3.org/2000/svg"
   xmlns:svg="http://www.w3.org/2000/svg">
  <defs
     id="defs433">
    <filter
       id="editing-golden"
       x="-0.0070953377"
       y="-0.033028208"
       width="1.0141907"
       height="1.0798182">
      <feFlood
         flood-color="#806527"
         result="flood"
         id="feFlood246" />
      <feFlood
         flood-color="#fff694"
         result="flood-light"
         id="feFlood248" />
      <feComposite
         operator="in"
         in="flood"
         in2="SourceAlpha"
         result="flood-comp"
         id="feComposite250" />
      <feGaussianBlur
         in="flood-comp"
         stdDeviation="3"
         result="blur"
         id="feGaussianBlur252" />
      <feOffset
         in="blur"
         dy="3"
         result="offset-blur"
         id="feOffset254" />
      <feComponentTransfer
         in="offset-blur"
         result="comp-blur"
         id="feComponentTransfer258">
        <feFuncA
           type="linear"
           slope="0.7"
           intercept="-0.1"
           id="feFuncA256" />
      </feComponentTransfer>
      <feSpecularLighting
         surfaceScale="200"
         specularConstant="20"
         specularExponent="1"
         lighting-color="#ffffff"
         in="blur"
         result="specular"
         id="feSpecularLighting262">
        <fePointLight
           x="-250"
           y="-250"
           z="3500"
           id="fePointLight260" />
      </feSpecularLighting>
      <feComponentTransfer
         in="specular"
         result="inspecular"
         id="feComponentTransfer266">
        <feFuncA
           type="linear"
           slope="-1"
           intercept="1"
           id="feFuncA264" />
      </feComponentTransfer>
      <feComposite
         operator="in"
         in="flood-light"
         in2="inspecular"
         result="inspecular2"
         id="feComposite268" />
      <feComposite
         operator="in"
         in="inspecular2"
         in2="SourceAlpha"
         result="light"
         id="feComposite270" />
      <feMerge
         id="feMerge278">
        <feMergeNode
           in="comp-blur"
           id="feMergeNode272" />
        <feMergeNode
           in="SourceGraphic"
           id="feMergeNode274" />
        <feMergeNode
           in="light"
           id="feMergeNode276" />
      </feMerge>
    </filter>
  </defs>
  <sodipodi:namedview
     id="namedview431"
     pagecolor="#ffffff"
     bordercolor="#666666"
     borderopacity="1.0"
     inkscape:pageshadow="2"
     inkscape:pageopacity="0.0"
     inkscape:pagecheckerboard="0"
     showgrid="false"
     inkscape:zoom="5.4753782"
     inkscape:cx="114.23868"
     inkscape:cy="19.450711"
     inkscape:window-width="1920"
     inkscape:window-height="1051"
     inkscape:window-x="-9"
     inkscape:window-y="-9"
     inkscape:window-maximized="1"
     inkscape:current-layer="svg429" />
  <style
     id="style399">.cls-1{fill:#fed136;}</style>
  <g
     filter="url(#editing-golden)"
     id="g287"
     transform="matrix(0.21425371,0,0,0.17080744,60.991761,-5.4845506)">
    <g
       transform="translate(-238.88812,183.99774)"
       id="g285">
      <path
         d="m -2.15,-49.41 v 0 0 q 0.39,1.56 0.2,4 v 0 0 q -0.2,2.44 -0.39,4.59 v 0 0 q 0,2.54 -0.2,3.61 v 0 0 q -0.19,1.08 -0.59,2.05 v 0 0 q -0.39,1.96 -0.97,4.2 v 0 0 q -0.59,2.25 -0.98,4.59 v 0 0 q 0,1.37 -0.1,2.64 v 0 0 q -0.09,1.27 -0.09,2.64 v 0 0 q 0,1.56 -0.2,3.51 v 0 0 q -0.19,1.95 0.59,3.52 v 0 0 q 0.39,0.97 1.56,2.63 v 0 0 q 1.17,1.66 1.56,3.03 v 0 0 q 1.56,0.98 1.47,1.27 v 0 0 q -0.1,0.29 0.09,0.68 v 0 0 q 0.79,1.57 2.15,1.96 v 0 0 q 1.96,1.17 4.79,0.97 v 0 0 q 2.83,-0.19 5.17,0.39 v 0 0 q 3.52,-0.58 6.25,-2.14 v 0 0 q 0.79,-0.39 1.66,-0.78 v 0 0 q 0.88,-0.4 1.47,-1.18 v 0 0 q 0.59,-0.97 1.07,-2.34 v 0 0 q 0.49,-1.37 1.08,-2.73 v 0 0 q 0.58,-1.37 1.17,-3.72 v 0 0 q 0.59,-2.34 0.78,-3.71 v 0 0 q 2.15,-3.71 3.42,-7.81 v 0 0 q 1.27,-4.1 2.64,-8.01 v 0 0 q 0.78,-2.34 1.56,-4.39 v 0 0 q 0.78,-2.05 1.76,-4.2 v 0 0 q 0.78,-2.15 1.56,-4.2 v 0 0 q 0.78,-2.05 2.15,-3.81 v 0 0 q 0.58,-3.12 1.75,-5.47 v 0 0 q 1.18,-2.34 2.35,-4.68 v 0 0 q 1.37,-3.13 2.93,-5.86 v 0 0 q 1.76,-2.93 3.22,-5.67 v 0 0 q 1.47,-2.73 3.22,-5.47 v 0 0 q 1.37,-3.32 3.23,-6.34 v 0 0 q 1.85,-3.03 3.02,-6.35 v 0 0 q 0.98,-2.74 1.76,-5.28 v 0 0 q 0.78,-2.53 2.34,-4.68 v 0 0 q 1.57,-3.13 2.54,-5.76 v 0 0 q 0.98,-2.64 2.54,-5.18 v 0 0 q 0.2,-0.98 0.49,-1.76 v 0 0 q 0.29,-0.78 0.68,-1.76 v 0 0 q -1.56,0.39 -2.92,1.57 v 0 0 q -1.37,1.17 -3.33,1.75 v 0 0 q -1.56,0.98 -3.32,2.25 v 0 0 q -1.75,1.27 -2.93,2.64 v 0 0 q -0.58,2.34 -1.17,2.93 v 0 0 q -0.58,0.58 -1.17,1.36 v 0 0 q -1.17,0.2 -2.15,0.49 v 0 0 q -0.97,0.29 -2.15,0.49 v 0 0 q -1.17,-0.39 -1.46,-1.17 v 0 0 q -0.29,-0.78 -0.88,-1.76 v 0 0 q -0.98,-1.76 -0.49,-2.73 v 0 0 q 0.49,-0.98 0.88,-1.76 v 0 0 q 0.39,-0.59 0.88,-0.98 v 0 0 q 0.49,-0.39 0.68,-0.97 v 0 0 q 2.54,-2.35 5.28,-4.3 v 0 0 q 2.73,-1.95 5.27,-4.1 v 0 0 q 1.17,-1.18 2.34,-2.44 v 0 0 q 1.18,-1.27 2.35,-2.25 v 0 l 5.27,-4.1 v 0 q 1.95,-1.37 3.42,-3.03 v 0 0 q 1.46,-1.66 3.03,-3.12 v 0 0 q 1.56,-1.47 3.61,-2.54 v 0 0 q 2.05,-1.08 5.18,-1.47 v 0 0 q 0.78,-0.19 1.36,-0.39 v 0 0 q 0.59,-0.19 1.57,-0.19 v 0 0 q 1.17,-0.2 1.17,0 v 0 0 q 0,0.19 1.36,-0.2 v 0 0 q 0.98,-0.2 1.66,-0.49 v 0 0 q 0.69,-0.29 1.66,-0.68 v 0 0 q 0.98,-0.39 1.96,-0.49 v 0 0 q 0.97,-0.1 1.76,-0.49 v 0 0 q 0.58,-0.19 1.27,0 v 0 0 q 0.68,0.2 1.46,0.39 v 0 0 q 1.17,0.98 1.46,2.44 v 0 0 q 0.3,1.47 -0.09,2.93 v 0 0 q -0.39,1.47 -1.08,2.93 v 0 0 q -0.68,1.47 -1.27,2.44 v 0 0 q -0.58,1.18 -1.46,2.35 v 0 0 q -0.88,1.17 -1.86,1.76 v 0 0 q -1.56,2.14 -3.22,4.29 v 0 0 q -1.66,2.15 -3.22,4.5 v 0 0 q -1.56,2.14 -2.83,4.68 v 0 0 q -1.27,2.54 -2.84,4.69 v 0 0 q -1.56,2.34 -2.93,4.69 v 0 0 q -1.36,2.34 -2.73,4.88 v 0 0 q -1.56,3.32 -3.61,6.35 v 0 0 q -2.05,3.03 -3.62,6.74 v 0 0 q -0.97,2.34 -1.66,4.68 v 0 0 q -0.68,2.35 -1.66,4.89 v 0 0 q -0.39,0.58 -0.68,1.27 v 0 0 q -0.29,0.68 -0.68,1.27 v 0 0 q -0.39,0.78 -0.49,1.36 v 0 0 q -0.1,0.59 -0.69,0.98 v 0 0 q -1.36,3.71 -3.02,6.93 v 0 0 q -1.66,3.23 -2.64,7.13 v 0 0 q -0.39,0.39 -0.59,1.08 v 0 0 q -0.19,0.68 -0.58,1.07 v 0 0 q 0.19,0.2 0,1.86 v 0 0 q -0.2,1.66 -0.59,2.44 v 0 0 q -1.17,2.15 -1.85,3.32 v 0 0 q -0.69,1.17 -1.27,2.54 v 0 0 q -2.15,4.1 -3.91,8.59 v 0 0 q -1.76,4.49 -3.91,8.98 v 0 0 q -1.17,1.96 -2.05,4.01 v 0 0 q -0.88,2.05 -1.85,4.39 v 0 0 q 0,1.37 -0.59,2.35 v 0 0 q -0.58,0.97 -0.97,2.15 v 0 0 q -0.79,1.75 -1.08,3.32 v 0 0 q -0.29,1.56 -1.27,3.12 v 0 0 q -0.58,0.78 -1.17,1.47 v 0 0 q -0.59,0.68 -0.98,1.46 v 0 0 q -0.39,0.78 -0.48,1.66 v 0 0 q -0.1,0.88 -0.49,1.66 v 0 0 q -0.39,1.17 -1.37,2.34 v 0 0 Q 33.2,0.98 32.23,1.95 v 0 0 q -0.98,0.98 -1.47,1.96 v 0 0 Q 30.27,4.88 29.3,5.86 v 0 0 q -1.17,0.59 -2.15,1.27 v 0 0 Q 26.17,7.81 25,8.2 v 0 0 q -2.54,1.37 -4.88,1.96 v 0 0 q -1.76,0.39 -2.44,0.68 v 0 0 q -0.69,0.29 -1.66,0.29 v 0 0 q -1.37,0 -2.15,-0.19 v 0 0 q -0.78,-0.2 -2.15,-0.2 v 0 0 q -1.56,0.59 -3.13,0.2 v 0 0 Q 7.03,10.55 5.47,10.16 v 0 0 q -0.78,0 -1.66,0 v 0 0 q -0.88,0 -1.66,-0.2 v 0 0 Q -0.78,9.38 -3.32,7.32 v 0 0 Q -5.86,5.27 -8.79,4.88 v 0 0 q -4.49,-2.93 -7.52,-7.81 v 0 0 q -3.03,-4.88 -5.17,-10.94 v 0 0 q -0.98,-3.51 -0.4,-7.32 v 0 0 q 0.59,-3.81 0.79,-7.72 v 0 0 q 0.39,-2.54 0.58,-4.68 v 0 0 q 0.2,-2.15 0.78,-4.3 v 0 0 q 0.39,-1.37 0.88,-2.64 v 0 0 q 0.49,-1.27 0.88,-2.24 v 0 0 q 0.78,-1.18 1.76,-2.15 v 0 0 q 0.98,-0.98 1.76,-2.35 v 0 0 q 1.17,-0.78 3.12,-0.68 v 0 0 q 1.95,0.1 3.91,-0.29 v 0 0 q 1.37,-0.39 2.73,-1.08 v 0 0 q 1.37,-0.68 2.54,-0.09 z m 170.9,-7.04 v 0 0 q 0.98,0.2 1.27,0.79 v 0 0 q 0.29,0.58 1.07,0.58 v 0 0 q 0.2,0.98 -0.09,1.56 v 0 0 q -0.3,0.59 -0.69,1.08 v 0 0 q -0.39,0.49 -0.68,0.98 v 0 0 q -0.29,0.48 -0.1,1.26 v 0 0 q -1.76,1.18 -4.3,1.47 v 0 0 q -2.53,0.29 -3.9,2.05 v 0 0 q -3.32,1.56 -7.13,2.05 v 0 0 q -3.81,0.49 -7.91,1.27 v 0 0 q -1.95,1.37 -2.64,1.56 v 0 0 q -0.68,0.2 -1.46,0.59 v 0 0 q -1.96,-0.78 -4.1,-0.78 v 0 0 q -2.15,0 -4.3,-0.59 v 0 0 q -1.17,0.39 -2.25,0.39 v 0 0 q -1.07,0 -2.24,0.39 v 0 0 q -0.78,1.57 -0.78,3.52 v 0 0 q 0,1.95 -0.59,3.51 v 0 l -1.17,2.35 v 0 q -0.2,0.97 -0.3,1.85 v 0 0 q -0.09,0.88 -0.48,1.86 v 0 0 q -0.39,0.58 -0.88,1.37 v 0 0 q -0.49,0.78 -0.49,1.75 v 0 0 q -1.37,1.57 -1.95,3.62 v 0 0 q -0.59,2.05 -2.15,3.42 v 0 0 q -0.59,1.95 -1.86,3.12 v 0 0 q -1.27,1.17 -2.44,2.73 v 0 0 q -2.15,2.93 -3.81,5.08 v 0 0 q -1.66,2.15 -4.39,3.71 v 0 0 q -0.98,1.57 -2.35,2.15 v 0 0 q -1.17,1.17 -1.56,1.96 v 0 0 q -1.76,0.97 -3.9,2.34 v 0 0 q -2.15,1.37 -4.5,1.95 v 0 0 Q 92.38,5.27 89.26,4.3 v 0 0 Q 86.13,3.32 83.4,1.56 v 0 0 q -1.76,0.2 -2.83,-0.68 v 0 0 Q 79.49,0 77.93,-0.39 v 0 0 q -2.15,-1.95 -4.69,-3.52 v 0 0 Q 70.7,-5.47 69.53,-8.2 v 0 0 q -0.39,-2.15 -0.88,-4.3 v 0 0 q -0.49,-2.15 -0.88,-3.91 v 0 0 q -0.39,-1.75 -0.09,-3.71 v 0 0 q 0.29,-1.95 0.09,-3.9 v 0 0 q 0,-2.15 -0.09,-3.62 v 0 0 q -0.1,-1.46 0.87,-3.61 v 0 0 q 1.18,-2.54 1.57,-4.2 v 0 0 q 0.39,-1.66 0.78,-2.83 v 0 0 q 0.58,-0.98 1.17,-2.15 v 0 0 q 0.59,-1.17 1.37,-2.15 v 0 0 q 1.17,-1.76 2.73,-3.51 v 0 0 q 1.56,-1.76 3.13,-3.32 v 0 0 q 1.17,-1.57 2.15,-2.54 v 0 0 q 1.56,-1.57 3.32,-2.93 v 0 0 q 1.75,-1.37 3.51,-3.13 v 0 0 q 0.39,-0.58 0.98,-0.97 v 0 0 q 0.58,-0.4 1.17,-0.79 v 0 0 q 1.95,-1.17 3.61,-1.95 v 0 0 q 1.66,-0.78 3.81,-1.76 v 0 0 q 1.56,-0.78 3.03,-1.07 v 0 0 q 1.46,-0.29 3.42,-0.68 v 0 0 q 1.36,0 2.34,0 v 0 0 q 0.98,0 1.95,-0.4 v 0 0 q -0.58,-1.56 1.37,-2.14 v 0 0 q 1.95,-0.59 2.93,-0.39 v 0 0 q 1.95,0 3.13,0.87 v 0 0 q 1.17,0.88 2.14,2.06 v 0 0 q 2.15,1.56 4.3,4.1 v 0 0 q 0.39,0.39 0.98,0.58 v 0 0 q 0.58,0.2 0.97,0.59 v 0 0 q 0.79,0.98 1.08,2.15 v 0 0 q 0.29,1.17 1.27,2.15 v 0 0 q 0.58,0.39 1.17,0.97 v 0 0 q 0.59,0.59 0.78,1.56 v 0 0 q 0.98,0.4 1.86,0.69 v 0 0 q 0.88,0.29 1.85,0.49 v 0 0 q 0.98,0.39 2.05,0.19 v 0 0 q 1.08,-0.19 2.44,0 v 0 0 q 0.98,0.2 1.76,0.49 v 0 0 q 0.78,0.29 1.76,0.29 v 0 0 q 1.56,-0.19 3.22,-0.78 v 0 0 q 1.66,-0.58 3.81,-0.19 v 0 0 q 2.93,0.78 6.15,-0.59 v 0 0 q 3.23,-1.37 6.55,-1.76 v 0 0 q 0.78,0 1.36,-0.09 v 0 0 q 0.59,-0.1 1.37,-0.1 v 0 0 q 0.98,-0.78 2.54,-1.17 v 0 0 q 1.56,-0.39 3.32,-0.79 z m -55.86,5.86 v 0 0 q -1.95,-1.75 -2.25,-2.24 v 0 0 q -0.29,-0.49 -0.68,-0.69 v 0 0 q -0.78,-0.78 -1.95,-0.97 v 0 0 q -1.17,-0.2 -2.15,-0.39 v 0 0 q -3.13,-0.59 -5.18,0.68 v 0 0 q -2.05,1.27 -4,2.44 v 0 0 q -3.13,1.96 -5.47,4.88 v 0 0 q -0.58,0.98 -1.27,2.15 v 0 0 q -0.68,1.18 -1.07,2.54 v 0 0 q -0.78,1.56 -1.37,2.83 v 0 0 q -0.59,1.27 -0.98,3.03 v 0 0 q -0.97,1.95 -1.17,3.22 v 0 0 q -0.19,1.27 -0.39,2.25 v 0 0 q -0.19,1.95 -0.68,4.1 v 0 0 q -0.49,2.15 -0.49,3.71 v 0 0 q 0.19,0.59 0.59,1.57 v 0 0 q 0.39,0.97 0.78,1.36 v 0 0 q 0.39,0.98 0.88,2.15 v 0 0 q 0.48,1.17 0.87,1.76 v 0 0 q 0.98,1.37 2.54,1.76 v 0 0 q 1.57,0.39 3.52,0.97 v 0 0 q 2.15,1.18 2.93,0.98 v 0 0 q 0.78,-0.2 1.17,-0.2 v 0 0 q 2.54,-0.39 4.49,-2.14 v 0 0 q 1.96,-1.76 3.91,-2.74 v 0 0 q 1.56,-2.34 3.42,-4.98 v 0 0 q 1.85,-2.64 3.41,-5.37 v 0 0 q 0.59,-0.78 0.98,-1.76 v 0 0 q 0.39,-0.97 0.78,-1.76 v 0 0 q 1.37,-1.56 1.27,-1.75 v 0 0 q -0.1,-0.2 0.1,-0.59 v 0 0 q 1.37,-2.93 1.17,-4.49 v 0 0 q -0.19,-1.56 0,-3.13 v 0 0 q -0.97,-2.14 -1.66,-4.68 v 0 0 q -0.68,-2.54 -2.05,-4.5 z m 52.74,20.9 1.17,0.98 v 0 q 0.39,0.78 -0.3,2.15 v 0 0 q -0.68,1.36 -1.07,2.34 v 0 0 q 0.2,0.78 0.39,1.27 v 0 0 q 0.2,0.49 -0.19,1.27 v 0 0 q 1.36,0.98 1.75,2.25 v 0 0 q 0.39,1.27 1.37,2.63 v 0 0 q 0.98,1.17 2.05,1.96 v 0 0 q 1.08,0.78 2.05,1.75 v 0 0 q 0.98,-0.58 1.56,-0.58 v 0 0 q 0.59,0 1.57,-0.39 v 0 0 q 1.75,-2.35 2.73,-5.47 v 0 0 q 0.2,-0.78 0.39,-1.76 v 0 0 q 0.2,-0.98 0.2,-1.76 v 0 0 q -0.2,-2.73 -1.57,-5.27 v 0 0 q -1.36,-2.54 -2.14,-5.27 v 0 0 q -0.79,-1.57 -0.49,-3.52 v 0 0 q 0.29,-1.95 -0.1,-3.52 v 0 0 q -0.2,-0.97 -0.59,-1.56 v 0 0 q -0.39,-0.58 -0.78,-1.36 v 0 0 q -0.39,-1.57 -0.29,-3.52 v 0 0 q 0.1,-1.95 -0.88,-3.32 v 0 0 q -0.78,0.78 -2.54,2.93 v 0 0 q -1.76,2.15 -3.71,4.69 v 0 0 q -1.95,2.54 -3.61,4.68 v 0 0 q -1.66,2.15 -2.44,2.93 v 0 0 q -0.98,1.37 -2.15,2.45 v 0 0 q -1.17,1.07 -2.15,2.44 v 0 0 q -0.78,0.97 -2.64,3.22 v 0 0 q -1.85,2.25 -3.81,4.78 v 0 0 q -1.95,2.54 -3.61,4.79 v 0 0 q -1.66,2.25 -2.25,3.03 v 0 0 q -0.39,0.58 -2.05,2.93 v 0 0 q -1.66,2.34 -3.71,5.07 v 0 0 q -2.05,2.74 -3.71,5.08 v 0 0 q -1.66,2.35 -2.05,3.13 v 0 0 Q 130.86,3.71 129,5.18 v 0 0 q -1.85,1.46 -4.39,1.46 v 0 0 q -0.2,-0.19 -0.39,-1.07 v 0 0 q -0.2,-0.88 -0.29,-1.86 v 0 0 q -0.1,-0.98 -0.39,-1.85 v 0 0 q -0.3,-0.88 -0.49,-1.27 v 0 0 q 0.58,-1.18 0.88,-2.35 v 0 0 q 0.29,-1.17 1.66,-2.15 v 0 0 q 0.39,-1.36 2.34,-4.39 v 0 0 q 1.95,-3.03 4.3,-6.35 v 0 0 q 2.34,-3.32 4.39,-6.25 v 0 0 q 2.05,-2.93 2.83,-4.1 v 0 0 q 0.78,-0.78 2.54,-2.93 v 0 0 q 1.76,-2.15 3.52,-4.59 v 0 0 q 1.76,-2.44 3.42,-4.59 v 0 0 q 1.66,-2.15 2.44,-3.12 v 0 0 q 0.58,-1.76 2.54,-4.79 v 0 0 q 1.95,-3.03 4.29,-6.25 v 0 0 q 2.35,-3.22 4.59,-6.15 v 0 0 q 2.25,-2.93 3.42,-4.69 v 0 0 q 0.98,-1.56 1.66,-2.73 v 0 0 q 0.68,-1.18 1.47,-2.54 v 0 0 q 0.39,-0.39 0.78,-0.88 v 0 0 q 0.39,-0.49 0.58,-0.88 v 0 0 q 0.39,-1.56 -0.39,-2.25 v 0 0 q -0.78,-0.68 -0.58,-2.05 v 0 0 q 1.56,-3.12 3.41,-4.2 v 0 0 q 1.86,-1.07 3.42,-3.22 v 0 0 q 0.98,-0.78 1.86,-1.17 v 0 0 q 0.88,-0.39 1.85,-1.37 v 0 0 q 0.78,-0.78 1.96,-0.88 v 0 0 q 1.17,-0.1 2.24,0.2 v 0 0 q 1.08,0.29 1.96,0.78 v 0 0 q 0.87,0.49 1.07,0.88 v 0 0 q 0.2,0.58 0,1.56 v 0 0 q -0.2,0.98 -0.39,1.95 v 0 0 q -0.39,1.76 -0.78,3.23 v 0 0 q -0.39,1.46 -0.78,3.22 v 0 0 q -0.39,2.15 -0.69,4.1 v 0 0 q -0.29,1.95 1.27,3.71 v 0 0 q -0.19,0.98 0.1,2.35 v 0 0 q 0.29,1.36 0.68,2.53 v 0 0 q 0.39,6.25 2.25,12.41 v 0 0 q 1.86,6.15 4,11.23 v 0 0 q 0,0.97 0.3,1.95 v 0 0 q 0.29,0.98 0.68,1.95 v 0 0 q 0.59,6.25 -1.17,12.41 v 0 0 q -1.76,6.15 -3.32,12.01 v 0 0 q -1.17,1.95 -1.95,4.49 v 0 0 q -0.4,1.17 -0.79,1.95 v 0 0 q -0.39,0.78 -1.17,1.76 v 0 0 q -0.97,1.56 -1.76,3.52 v 0 0 q -0.78,1.95 -3.12,3.12 v 0 0 q -1.37,0.39 -2.64,0 v 0 0 q -1.27,-0.39 -2.44,0 v 0 0 q -0.98,0.2 -1.76,0.49 v 0 0 q -0.78,0.29 -1.56,0.29 v 0 0 q -2.54,0.39 -4.2,-0.49 v 0 0 q -1.66,-0.87 -4,-1.27 v 0 0 q 0,-0.58 -0.59,-0.87 v 0 0 q -0.58,-0.3 -0.97,-0.69 v 0 0 Q 161.91,1.37 161.13,0 v 0 0 q -0.78,-1.37 -1.17,-2.93 v 0 0 q -0.58,-2.15 -0.58,-4.2 v 0 0 q 0,-2.05 -0.98,-4.2 v 0 0 q -0.78,-1.56 -0.69,-2.15 v 0 0 q 0.1,-0.58 0.1,-1.17 v 0 0 q 0,-2.54 -0.29,-5.56 v 0 0 q -0.29,-3.03 2.44,-4.99 v 0 0 q 0.98,-0.78 1.47,-2.05 v 0 0 q 0.48,-1.27 1.66,-2.24 v 0 0 q 0.39,-0.39 1.27,-0.39 v 0 0 q 0.87,0 1.27,0.19 z m 74.41,-25.97 v 0 0 q -1.37,1.75 -2.74,3.32 v 0 0 q -1.36,1.56 -3.12,2.93 v 0 0 q -1.17,2.14 -2.73,3.9 v 0 0 q -1.57,1.76 -3.13,3.32 v 0 0 q -0.78,1.56 -1.76,2.44 v 0 0 q -0.97,0.88 -2.15,1.86 v 0 0 q -0.58,0.98 -1.46,1.95 v 0 0 q -0.88,0.98 -1.56,1.96 v 0 0 q -0.69,0.97 -1.08,2.14 v 0 0 q -0.39,1.18 0.2,2.54 v 0 0 q 2.15,0.39 4.29,-0.58 v 0 0 q 2.15,-0.98 3.72,-1.76 v 0 0 q 1.56,-0.98 3.22,-1.66 v 0 0 q 1.66,-0.68 3.03,-1.66 v 0 l 5.07,-5.08 v 0 q 1.37,-1.17 2.35,-2.54 v 0 0 q 0.97,-1.37 2.15,-2.93 v 0 0 q 0.39,-1.95 1.56,-4 v 0 0 q 1.17,-2.05 0.98,-4.01 v 0 0 q -0.2,-1.17 -0.69,-2.05 v 0 0 q -0.49,-0.88 -0.68,-1.85 v 0 0 q -1.96,0 -3.03,0.68 v 0 0 q -1.07,0.69 -2.44,1.08 z m -31.45,12.5 v 0 0 q 0.39,-0.2 1.66,-1.66 v 0 0 q 1.27,-1.47 2.84,-3.32 v 0 0 q 1.56,-1.86 2.93,-3.32 v 0 0 q 1.36,-1.47 1.95,-1.67 v 0 0 q 0.58,-0.97 1.07,-1.66 v 0 0 q 0.49,-0.68 1.47,-1.26 v 0 0 q 1.56,-2.93 4.1,-4.79 v 0 0 q 2.54,-1.86 4.88,-4.39 v 0 0 q 3.71,-1.57 7.52,-4.01 v 0 0 q 3.81,-2.44 8.5,-2.64 v 0 0 q 2.15,0.98 4.2,0.59 v 0 0 q 2.05,-0.39 3.81,0.98 v 0 0 q 0.97,1.76 1.75,2.24 v 0 0 q 0.78,0.49 1.18,1.08 v 0 0 q 0.78,2.54 1.17,3.22 v 0 0 q 0.39,0.68 0.58,1.66 v 0 0 q 0.2,2.93 0.39,4.2 v 0 0 q 0.2,1.27 0,2.44 v 0 0 q -0.58,5.27 -1.95,9.96 v 0 0 q -0.39,1.17 -0.78,2.44 v 0 0 q -0.39,1.27 -0.98,2.25 v 0 0 q -1.36,1.76 -2.05,3.03 v 0 0 q -0.68,1.27 -1.27,2.05 v 0 0 q -2.34,2.34 -4.1,3.9 v 0 0 q -1.76,0.98 -3.51,2.15 v 0 0 q -1.76,1.17 -3.91,1.56 v 0 0 q -0.98,0.59 -1.76,1.08 v 0 0 q -0.78,0.49 -1.95,0.68 v 0 0 q -1.95,1.37 -3.91,2.05 v 0 0 q -1.95,0.69 -4.1,1.66 v 0 0 q -1.17,0.39 -2.54,1.37 v 0 0 q -1.37,0.98 -2.73,1.56 v 0 0 q -1.17,0.39 -2.84,0.69 v 0 0 q -1.66,0.29 -2.63,0.68 v 0 0 q 0.97,2.15 0.78,4.88 v 0 0 q -0.2,2.74 0.98,4.89 v 0 0 q 2.54,0.58 5.56,0.88 v 0 0 q 3.03,0.29 5.76,-0.1 v 0 0 q 0.98,-0.2 2.15,-0.69 v 0 0 q 1.17,-0.48 2.35,-0.68 v 0 0 q 2.14,-0.39 4.2,-0.98 v 0 0 q 2.05,-0.58 3.61,-1.56 v 0 0 q 5.66,-1.95 10.94,-5.27 v 0 0 q 5.27,-3.32 9.18,-7.23 v 0 0 q 2.34,-1.56 5.17,-4.3 v 0 0 q 2.83,-2.73 4.4,-5.07 v 0 0 q 2.93,-3.13 5.17,-4.89 v 0 0 q 2.25,-1.75 4.2,-1.56 v 0 0 q 1.56,0 3.03,1.86 v 0 0 q 1.46,1.85 -0.29,4 v 0 0 q -1.96,1.17 -4.11,3.52 v 0 0 q -2.14,2.34 -4.49,3.32 v 0 0 q -1.76,1.17 -4.39,4.29 v 0 0 q -2.64,3.13 -4.4,4.69 v 0 0 q -0.78,0.78 -2.05,1.86 v 0 0 q -1.27,1.07 -2.05,2.05 v 0 0 q -2.73,2.34 -5.86,4.29 v 0 0 q -1.17,-0.39 -1.76,0.39 v 0 0 q -0.58,0.79 -1.56,1.57 v 0 0 q -0.58,0.39 -1.27,0.78 v 0 0 q -0.68,0.39 -1.27,0.78 v 0 0 q -1.56,1.37 -3.42,2.73 v 0 0 q -1.85,1.37 -3.8,2.35 v 0 0 q -3.91,2.34 -7.82,4 v 0 0 q -3.9,1.66 -7.61,4.2 v 0 0 q -1.18,0.2 -2.15,0.29 v 0 0 q -0.98,0.1 -1.96,0.3 v 0 0 q -1.17,0.39 -2.05,0.39 v 0 0 q -0.87,0 -2.44,-0.39 v 0 0 Q 216.8,6.25 214.45,4.88 v 0 0 q -2.34,-1.36 -4.68,-3.9 v 0 0 q -1.18,-1.18 -2.54,-2.15 v 0 0 q -1.37,-0.98 -2.15,-2.15 v 0 0 q -0.59,-0.98 -1.37,-3.13 v 0 0 q -0.78,-2.14 -1.37,-4.59 v 0 0 q -0.58,-2.44 -0.97,-4.78 v 0 0 q -0.39,-2.34 -0.39,-3.52 v 0 0 q 0.39,-0.78 0.88,-2.73 v 0 0 q 0.48,-1.95 0.97,-4.2 v 0 0 q 0.49,-2.25 0.78,-4.2 v 0 0 q 0.3,-1.95 0.3,-2.73 v 0 0 q 0.19,-0.2 0.97,-1.66 v 0 0 q 0.78,-1.47 1.66,-3.23 v 0 0 q 0.88,-1.75 1.47,-3.22 v 0 0 q 0.58,-1.46 0.58,-1.85 z m 116.02,20.5 v 0 0 q 3.32,-0.97 6.64,-1.75 v 0 0 q 3.32,-0.79 6.84,-1.18 v 0 0 q 3.12,-0.19 6.44,-1.17 v 0 0 q 1.37,-0.39 2.74,-0.88 v 0 0 q 1.36,-0.49 2.53,-0.88 v 0 0 q 1.37,-0.39 2.64,-0.68 v 0 0 q 1.27,-0.29 2.25,-0.49 v 0 0 q 1.56,1.17 1.46,1.27 v 0 0 q -0.1,0.1 0.3,0.49 v 0 l -1.57,2.73 v 0 q -0.78,0.59 -1.85,0.79 v 0 0 q -1.08,0.19 -2.05,0.58 v 0 0 q -0.78,0.39 -1.18,0.78 v 0 0 q -0.39,0.39 -0.78,0.59 v 0 0 q -0.78,0.19 -1.27,-0.1 v 0 0 q -0.48,-0.29 -0.87,-0.49 v 0 0 q -4.69,3.13 -10.75,4.3 v 0 0 q -6.05,1.17 -11.52,2.93 v 0 0 q -1.95,0.98 -3.91,2.05 v 0 0 q -1.95,1.07 -4.1,2.44 v 0 0 q -1.56,3.13 -4.39,6.06 v 0 0 q -2.83,2.93 -5.76,5.07 v 0 0 q -0.59,0.4 -1.27,0.88 v 0 0 q -0.69,0.49 -1.08,0.69 v 0 0 q -1.37,0.58 -3.03,0.97 v 0 0 q -1.66,0.39 -3.02,0.79 v 0 0 q -0.39,0.39 -0.98,0.78 v 0 0 q -0.59,0.39 -0.98,0.39 v 0 0 q -1.17,0.19 -2.34,-0.39 v 0 0 q -1.17,-0.59 -2.54,-0.78 v 0 0 q -0.98,-1.96 -1.17,-2.45 v 0 0 Q 289.84,0.2 289.26,0 v 0 0 q -0.59,-2.15 -2.25,-3.71 v 0 0 q -1.66,-1.56 -2.63,-3.71 v 0 0 q -0.4,-0.78 -0.69,-1.66 v 0 0 q -0.29,-0.88 -0.29,-1.66 v 0 0 q 0.19,-2.15 1.76,-3.71 v 0 0 q 1.56,-1.57 3.12,-2.54 v 0 0 q 1.17,1.76 2.05,1.36 v 0 0 q 0.88,-0.39 1.47,-0.78 v 0 0 q 0.97,-0.39 1.66,-0.48 v 0 0 q 0.68,-0.1 1.27,-0.3 v 0 0 q 1.56,-0.39 3.12,-0.68 v 0 0 q 1.56,-0.29 3.13,-0.49 v 0 0 q 1.95,-0.19 3.32,0.1 v 0 0 q 1.36,0.29 3.12,-0.1 v 0 0 q 0.98,-1.76 2.44,-3.32 v 0 0 q 1.47,-1.56 2.84,-2.93 v 0 0 q 0.97,-2.34 2.53,-5.08 v 0 0 q 1.57,-2.73 3.13,-5.27 v 0 l 1.76,-3.52 v 0 q 0.39,-0.39 0.68,-0.78 v 0 0 q 0.29,-0.39 0.68,-1.17 v 0 0 q 0.4,-1.56 0.3,-3.03 v 0 0 q -0.1,-1.46 -0.3,-3.22 v 0 0 q -1.75,-0.98 -3.71,-2.93 v 0 0 q -1.17,0.39 -2.24,0 v 0 0 q -1.08,-0.39 -2.25,0 v 0 0 q -0.58,0.2 -1.17,0.59 v 0 0 q -0.59,0.39 -1.37,0.78 v 0 0 q -1.76,0.97 -3.81,1.76 v 0 0 q -2.05,0.78 -3.22,2.34 v 0 0 q -2.15,2.15 -3.51,3.71 v 0 0 q -1.37,1.56 -2.93,3.32 v 0 0 q -1.96,1.56 -2.45,2.25 v 0 0 q -0.48,0.68 -0.87,1.07 v 0 0 q -1.18,1.17 -2.35,2.15 v 0 0 q -1.17,0.98 -2.15,2.15 v 0 0 q -0.39,0.58 -1.07,1.07 v 0 0 q -0.68,0.49 -1.08,1.08 v 0 0 q -1.17,1.36 -2.05,2.93 v 0 0 q -0.87,1.56 -1.85,3.12 v 0 0 q -0.98,1.56 -1.95,3.13 v 0 0 q -0.98,1.56 -1.96,3.12 v 0 0 q -2.15,6.06 -4.88,11.82 v 0 0 q -2.73,5.76 -4.88,12.01 v 0 0 q -0.39,2.15 -0.59,2.25 v 0 0 q -0.19,0.09 -0.19,0.48 v 0 0 q -0.4,1.57 -0.69,2.84 v 0 0 q -0.29,1.27 -0.88,2.44 v 0 0 q -0.39,1.56 -1.17,3.22 v 0 0 q -0.78,1.66 -1.56,3.22 v 0 0 q -1.17,2.74 -2.35,5.96 v 0 0 q -1.17,3.22 -2.34,6.15 v 0 0 q -0.98,2.15 -1.66,4.3 v 0 0 q -0.68,2.15 -1.46,4.3 v 0 0 q -0.59,1.17 -0.69,2.34 v 0 0 q -0.1,1.17 -0.49,2.34 v 0 0 q -0.58,2.15 -1.46,4.5 v 0 0 q -0.88,2.34 -1.07,4.49 v 0 0 q -2.93,2.73 -3.91,4.68 v 0 0 q -2.15,2.15 -4.49,3.81 v 0 0 q -2.35,1.66 -5.28,2.84 v 0 0 q -0.97,0 -2.24,0 v 0 0 q -1.27,0 -2.44,-0.3 v 0 0 q -1.18,-0.29 -2.15,-0.88 v 0 0 q -0.98,-0.58 -0.98,-1.75 v 0 0 q -0.19,-1.76 0.1,-4.5 v 0 0 q 0.29,-2.73 1.27,-4.68 v 0 0 q 0.78,-2.15 1.66,-4.11 v 0 0 q 0.88,-1.95 1.66,-3.32 v 0 0 q 1.17,-4.88 2.93,-8.59 v 0 0 q 0.97,-2.15 1.95,-4 v 0 0 q 0.98,-1.86 1.76,-4.01 v 0 0 q 0.39,-1.36 0.58,-2.93 v 0 0 q 0.2,-1.56 1.18,-2.73 v 0 0 q 1.36,-3.32 3.41,-6.25 v 0 0 q 2.06,-2.93 4.2,-5.86 v 0 0 q 0.98,-1.56 1.76,-3.22 v 0 0 q 0.78,-1.66 1.76,-3.23 v 0 0 q 1.76,-2.93 2.93,-6.25 v 0 0 q 1.17,-3.32 3.32,-6.05 v 0 0 q 0.98,-2.15 1.95,-4 v 0 0 q 0.98,-1.86 1.96,-3.81 v 0 0 q 0.39,-0.98 0.68,-2.05 v 0 0 q 0.29,-1.08 0.68,-2.06 v 0 0 q 1.17,-1.75 2.15,-3.71 v 0 0 q 1.76,-3.9 3.61,-7.71 v 0 0 q 1.86,-3.81 4.2,-7.52 v 0 0 q 0.2,-2.15 1.08,-3.91 v 0 0 q 0.88,-1.75 1.66,-3.9 v 0 0 q 0.58,-1.57 0.88,-3.32 v 0 0 q 0.29,-1.76 0.68,-3.32 v 0 0 q 0.39,-1.37 1.37,-2.74 v 0 0 q 0.97,-1.37 1.76,-2.93 v 0 0 q 0.39,-0.58 0.78,-1.27 v 0 0 q 0.39,-0.68 0.78,-1.27 v 0 0 q 0.58,-1.17 0.88,-2.05 v 0 0 q 0.29,-0.88 1.07,-1.85 v 0 0 q 2.15,-2.54 3.03,-3.03 v 0 0 q 0.88,-0.49 2.05,-1.27 v 0 0 q 3.91,-0.2 4.88,1.86 v 0 0 q 0.98,2.05 1.76,4.19 v 0 0 q -0.39,1.57 -0.78,3.13 v 0 0 q -0.39,1.56 -0.78,3.71 v 0 0 q 1.56,-1.37 3.42,-2.93 v 0 0 q 1.85,-1.56 3.41,-3.12 v 0 0 q 3.32,-1.96 6.45,-4.2 v 0 0 q 3.12,-2.25 7.03,-3.81 v 0 0 q 0.98,-0.39 2.05,-0.78 v 0 0 q 1.08,-0.39 2.05,-0.39 v 0 0 q 0.98,0 1.66,0.48 v 0 0 q 0.69,0.49 1.86,0.69 v 0 0 q 0.97,0.97 2.24,1.85 v 0 0 q 1.27,0.88 2.25,2.05 v 0 0 q 0.78,0.98 1.17,2.35 v 0 0 q 0.39,1.37 0.78,2.73 v 0 0 q 0.39,1.37 1.08,2.74 v 0 0 q 0.68,1.36 0.88,2.54 v 0 0 q 0,0.97 -0.2,1.95 v 0 0 q -0.19,0.98 -0.19,1.95 v 0 0 q 0,0.59 0.09,1.17 v 0 0 q 0.1,0.59 0.1,1.57 v 0 0 q -0.19,2.15 -1.56,4.88 v 0 0 q -1.37,2.73 -2.35,4.88 v 0 0 q -0.78,1.56 -1.36,2.93 v 0 0 q -0.59,1.37 -1.37,2.93 v 0 0 q -0.98,2.15 -1.76,3.91 v 0 0 q -0.78,1.76 -1.56,3.51 z m 33.2,7.82 v 0 0 q 4.49,-3.91 8.3,-8.5 v 0 0 q 3.81,-4.59 8.3,-9.28 v 0 0 q 0.98,-0.97 1.96,-2.34 v 0 0 q 0.97,-1.37 1.95,-2.93 v 0 0 q 0.78,-1.17 1.95,-2.25 v 0 0 q 1.18,-1.07 1.96,-2.05 v 0 0 q 0.58,-0.97 1.46,-1.56 v 0 0 q 0.88,-0.59 1.86,-1.37 v 0 0 q 0.97,-0.97 1.75,-1.66 v 0 0 q 0.79,-0.68 1.76,-1.46 v 0 0 q 1.76,-1.37 3.32,-2.83 v 0 0 q 1.57,-1.47 3.71,-2.45 v 0 0 q 1.18,-0.19 1.76,-0.87 v 0 0 q 0.59,-0.69 1.37,-1.47 v 0 0 q 0.98,0.2 1.76,-0.19 v 0 0 q 0.78,-0.4 1.75,-0.79 v 0 0 q 2.74,0.59 4.4,2.15 v 0 0 q 1.66,1.56 3.22,3.13 v 0 0 q 1.37,0.58 2.15,1.07 v 0 0 q 0.78,0.49 1.56,1.08 v 0 0 q 0.78,1.56 1.37,2.93 v 0 0 q 0.59,1.36 0.59,3.12 v 0 0 q 0,1.17 -0.2,2.34 v 0 0 q -0.19,1.18 -0.39,2.35 v 0 0 q -0.78,2.34 -0.59,2.54 v 0 0 q 0.2,0.19 0.2,0.58 v 0 0 q 0.19,1.57 -1.08,3.23 v 0 0 q -1.26,1.66 -0.68,3.41 v 0 0 q 0.2,0.59 -0.49,2.93 v 0 0 q -0.68,2.35 -0.49,2.93 v 0 0 q 0.4,1.17 0.4,3.03 v 0 0 q 0,1.86 0.97,2.64 v 0 0 q 1.96,0.78 2.74,0.78 v 0 0 q 0.78,0 1.36,0 v 0 0 q 2.35,-1.17 5.86,-4.01 v 0 0 q 3.52,-2.83 5.28,-4.78 v 0 0 q 1.95,-1.56 3.51,-3.03 v 0 0 q 1.56,-1.46 4.3,-2.83 v 0 0 q 2.34,-1.56 3.12,-2.44 v 0 0 q 0.79,-0.88 2.54,-2.83 v 0 0 q 0.59,-0.59 1.47,-1.18 v 0 0 q 0.88,-0.58 1.66,-1.36 v 0 0 q 0.58,-0.59 1.56,-1.27 v 0 0 q 0.98,-0.69 1.56,-0.88 v 0 0 q 0.78,0 2.25,0 v 0 0 q 1.46,0 1.85,0.78 v 0 0 q 0.4,1.56 0,2.73 v 0 0 q -0.39,1.18 -0.97,2.15 v 0 0 q -0.78,1.17 -1.76,2.15 v 0 0 q -0.78,1.37 -1.76,2.54 v 0 0 q -0.97,0.98 -2.15,2.25 v 0 0 q -1.17,1.27 -2.73,2.05 v 0 0 q -0.98,1.17 -1.86,2.05 v 0 0 q -0.87,0.88 -1.85,1.85 v 0 0 q -0.98,0.98 -1.76,2.15 v 0 0 q -0.78,1.17 -1.76,2.15 v 0 0 q -2.15,1.76 -4.2,3.42 v 0 0 q -2.05,1.66 -3.8,3.81 v 0 0 q -0.98,0.39 -1.57,0.88 v 0 0 q -0.58,0.48 -1.36,0.87 v 0 0 q -1.96,0.59 -3.72,1.96 v 0 0 q -1.75,1.37 -3.61,2.83 v 0 0 q -1.85,1.46 -3.81,2.64 v 0 0 q -1.95,1.17 -4.29,0.97 v 0 0 q -2.15,0.98 -3.72,0.1 v 0 0 q -1.56,-0.88 -3.12,-1.85 v 0 0 q -2.15,-1.37 -4.1,-3.13 v 0 0 q -1.95,-1.76 -2.35,-4.88 v 0 0 q -0.39,-5.08 1.18,-9.57 v 0 0 q 1.56,-4.49 2.34,-8.99 v 0 0 q 0,-0.39 0.29,-1.46 v 0 0 q 0.3,-1.08 0.39,-2.35 v 0 0 q 0.1,-1.27 0.2,-2.34 v 0 0 q 0.1,-1.07 -0.1,-1.46 v 0 0 q -0.39,-0.39 -0.49,-1.37 v 0 0 q -0.09,-0.98 -1.66,-1.95 v 0 0 q -0.97,-0.59 -0.78,-0.2 v 0 0 q 0.2,0.39 -1.56,0.39 v 0 0 q -1.56,0.59 -2.74,1.56 v 0 0 q -1.17,0.98 -2.53,1.96 v 0 0 q -1.96,2.14 -4.4,3.9 v 0 0 q -2.44,1.76 -4.2,4.1 v 0 0 q -1.56,1.76 -2.93,3.52 v 0 0 q -1.36,1.76 -3.12,3.52 v 0 0 q -2.54,2.93 -5.28,5.85 v 0 0 q -2.73,2.93 -5.46,5.67 v 0 0 q -1.37,1.56 -2.54,3.12 v 0 0 q -1.18,1.57 -2.54,3.13 v 0 0 q -2.35,2.93 -5.08,5.66 v 0 0 q -1.17,1.96 -3.32,3.71 v 0 0 Q 350,7.42 347.85,8.2 v 0 0 q -0.58,-0.39 -1.27,0 v 0 0 q -0.68,0.39 -1.27,0.39 v 0 0 q -2.34,-0.97 -2.73,-1.07 v 0 0 q -0.39,-0.1 -0.59,-0.88 v 0 0 q -1.95,-1.17 -1.46,-3.81 v 0 0 q 0.49,-2.63 0.88,-4.59 v 0 0 q 1.95,-8.79 5.37,-17.48 v 0 0 q 3.42,-8.69 5.37,-17.09 v 0 0 q 0.98,-3.32 1.95,-6.15 v 0 0 q 0.98,-2.83 2.35,-5.96 v 0 0 q 1.36,-2.73 1.85,-5.56 v 0 0 q 0.49,-2.84 1.86,-5.57 v 0 0 q 0.78,-1.37 1.36,-2.93 v 0 0 q 0.59,-1.56 1.18,-2.93 v 0 0 q 2.14,-3.91 4.1,-9.67 v 0 0 q 1.95,-5.76 4.1,-10.25 v 0 0 q 2.34,-6.25 4.88,-12.11 v 0 0 q 2.54,-5.86 5.67,-11.52 v 0 0 q 0.97,-3.91 2.44,-7.33 v 0 0 q 1.46,-3.42 3.61,-6.74 v 0 0 q 1.95,-2.54 2.64,-4.1 v 0 0 q 0.68,-1.56 1.66,-2.93 v 0 0 q 2.34,-2.73 5.27,-4.39 v 0 0 q 2.93,-1.66 5.08,-4.4 v 0 0 q 1.56,-0.78 3.03,-1.17 v 0 0 q 1.46,-0.39 2.83,-0.98 v 0 0 q 0.39,0.39 0.49,1.08 v 0 0 q 0.09,0.68 0.09,1.27 v 0 0 q 0.39,0 0.2,1.17 v 0 0 q -0.2,1.17 0,1.95 v 0 0 q 0,2.93 -0.49,3.91 v 0 0 q -0.49,0.98 -0.88,2.15 v 0 0 q -0.19,1.17 -0.19,2.05 v 0 0 q 0,0.88 -0.2,1.66 v 0 0 q -0.58,1.76 -0.49,2.05 v 0 0 q 0.1,0.29 0.1,0.68 v 0 0 q 0,0.78 -0.19,1.76 v 0 0 q -0.2,0.98 -0.2,1.95 v 0 0 q -0.2,2.15 -1.07,4.5 v 0 0 q -0.88,2.34 -1.47,4.29 v 0 0 q -1.17,1.37 -1.37,2.15 v 0 0 q -0.19,0.78 -0.78,0.98 v 0 0 q -1.17,3.32 -2.15,6.44 v 0 0 q -0.97,3.13 -2.93,5.86 v 0 0 q -0.78,2.15 -2.05,4.2 v 0 0 q -1.27,2.05 -2.24,4.01 v 0 0 q -0.39,0.97 -0.88,1.85 v 0 0 q -0.49,0.88 -0.88,1.86 v 0 0 q -1.37,2.54 -2.83,5.17 v 0 0 q -1.47,2.64 -3.42,4.79 v 0 0 q -3.52,7.42 -7.42,14.94 v 0 0 q -3.91,7.52 -7.62,14.55 v 0 0 q -1.37,2.15 -1.95,3.71 v 0 0 q -0.59,1.37 -0.69,2.44 v 0 0 q -0.09,1.08 -1.07,2.05 v 0 0 q -0.59,1.76 -1.07,3.32 v 0 0 q -0.49,1.57 -1.47,2.93 v 0 0 q -0.78,4.1 -2.44,7.33 v 0 0 q -1.66,3.22 -2.64,7.13 z m 334.77,-133.01 v 0 0 q -0.2,0.78 0.1,1.17 v 0 0 q 0.29,0.39 0.68,0.98 v 0 0 q -0.39,0.78 -0.78,1.46 v 0 0 q -0.39,0.69 -0.39,1.66 v 0 0 q -0.98,1.17 -1.76,2.74 v 0 0 q -0.78,1.56 -1.76,2.73 v 0 0 q -2.34,3.32 -4.29,6.45 v 0 0 q -1.96,3.12 -4.11,5.86 v 0 0 q -0.78,0.97 -1.07,1.75 v 0 0 q -0.29,0.78 -0.88,1.37 v 0 0 q -1.56,1.76 -1.95,2.64 v 0 0 q -0.39,0.88 -0.78,1.85 v 0 0 q -0.39,0.78 -0.59,1.08 v 0 0 q -0.2,0.29 -0.29,0.58 v 0 0 q -0.1,0.3 -0.39,0.69 v 0 0 q -0.3,0.39 -0.88,1.17 v 0 0 q -0.39,0.78 -0.88,1.56 v 0 0 q -0.49,0.78 -0.88,1.76 v 0 0 q -0.98,1.56 -1.76,2.93 v 0 0 q -0.78,1.37 -1.76,2.93 v 0 0 q -0.39,0.97 -0.87,1.46 v 0 0 q -0.49,0.49 -0.69,1.47 v 0 0 q -1.37,1.76 -1.76,2.24 v 0 0 q -0.39,0.49 -0.78,0.98 v 0 0 q -0.39,0.49 -0.78,1.07 v 0 0 q -0.39,0.59 -0.98,1.96 v 0 0 q -0.58,1.76 -0.87,2.73 v 0 0 q -0.3,0.98 -0.59,1.76 v 0 0 q -0.29,0.78 -0.68,1.56 v 0 0 q -0.39,0.78 -1.37,1.96 v 0 0 q -1.17,2.14 -2.25,3.61 v 0 0 q -1.07,1.46 -2.05,3.03 v 0 0 q -0.78,1.17 -1.07,1.56 v 0 0 q -0.29,0.39 -0.59,0.68 v 0 0 q -0.29,0.29 -0.58,0.69 v 0 0 q -0.3,0.39 -0.88,1.56 v 0 0 q -1.57,2.15 -2.93,4.39 v 0 0 q -1.37,2.25 -2.93,4.4 v 0 0 q -0.98,1.56 -1.76,3.12 v 0 0 q -0.78,1.56 -1.95,2.93 v 0 0 q -0.78,2.54 -2.93,4.3 v 0 0 q -2.15,4.3 -3.91,8.79 v 0 0 q -1.76,4.49 -3.51,9.18 v 0 0 q -0.79,0.97 -0.98,2.15 v 0 0 q -1.37,2.14 -1.47,2.63 v 0 0 q -0.09,0.49 -0.48,0.88 v 0 0 q -1.57,2.15 -2.54,3.71 v 0 0 q -0.98,1.56 -1.96,2.93 v 0 0 q -0.97,1.17 -1.85,2.25 v 0 0 q -0.88,1.07 -1.27,2.63 v 0 0 q -1.56,2.15 -3.03,4.3 v 0 0 q -1.46,2.15 -2.44,4.88 v 0 0 q -0.78,0.98 -1.27,1.76 v 0 0 q -0.49,0.78 -0.88,1.76 v 0 0 q -1.76,1.76 -2.54,3.71 v 0 0 q -3.32,3.32 -6.54,6.45 v 0 0 q -3.22,3.12 -7.13,5.86 v 0 0 q -0.98,0.19 -1.95,0.48 v 0 0 q -0.98,0.3 -2.15,0.1 v 0 0 Q 591.8,7.23 590.72,6.64 v 0 0 q -1.07,-0.59 -2.24,-0.39 v 0 0 q -1.37,-0.78 -2.74,-3.32 v 0 0 q -0.39,-1.56 -0.58,-2.64 v 0 0 q -0.2,-1.07 -0.59,-2.24 v 0 0 q -0.98,-2.54 -1.37,-4.3 v 0 0 q -0.39,-2.15 0.1,-4.39 v 0 0 q 0.49,-2.25 1.08,-4.99 v 0 0 q 0.78,-2.73 1.46,-5.56 v 0 0 q 0.68,-2.83 1.07,-5.57 v 0 0 q 0.59,-3.9 1.47,-7.81 v 0 0 q 0.88,-3.91 1.46,-7.42 v 0 0 q 0.59,-2.15 1.18,-4.3 v 0 0 q 0.58,-2.15 0.58,-4.3 v 0 0 q 0,-1.17 0.1,-2.44 v 0 0 q 0.1,-1.27 0.29,-2.44 v 0 0 q 1.17,-5.47 3.22,-10.84 v 0 0 q 2.06,-5.37 4.01,-10.45 v 0 0 q 0.39,-0.97 0.78,-2.24 v 0 0 q 0.39,-1.27 0.59,-2.45 v 0 0 q 0.19,-1.56 0.19,-2.83 v 0 0 q 0,-1.27 0.2,-2.83 v 0 0 q 0.19,-0.78 0.29,-1.27 v 0 0 q 0.1,-0.49 0.1,-1.07 v 0 0 q 0,-0.59 -0.1,-1.18 v 0 0 q -0.1,-0.58 0.1,-1.17 v 0 0 q 0,-0.97 0.29,-1.95 v 0 0 q 0.29,-0.98 0.68,-2.34 v 0 0 q 0.2,-1.18 0.2,-2.35 v 0 0 q 0,-1.17 0.19,-2.54 v 0 0 q -6.44,8.01 -11.62,15.82 v 0 0 q -5.17,7.82 -10.64,15.63 v 0 0 q -0.98,2.15 -2.34,3.9 v 0 0 q -1.37,1.76 -2.54,3.72 v 0 0 q -0.98,1.56 -2.15,3.22 v 0 0 q -1.17,1.66 -2.15,3.22 v 0 0 q -0.78,1.76 -1.37,3.32 v 0 0 q -0.58,1.56 -1.56,2.93 v 0 0 q -0.59,0.98 -1.37,1.95 v 0 0 q -0.78,0.98 -1.36,1.96 v 0 0 q -0.98,0.97 -2.06,1.95 v 0 0 q -1.07,0.98 -2.05,1.95 v 0 0 q -0.97,0.39 -1.75,1.66 v 0 0 q -0.79,1.27 -1.66,2.74 v 0 0 q -0.88,1.46 -1.76,2.83 v 0 0 q -0.88,1.37 -1.27,1.95 v 0 0 q -1.76,4.3 -3.91,8.01 v 0 0 q -2.15,3.71 -4.49,7.42 v 0 0 q -0.78,1.17 -1.47,2.44 v 0 0 q -0.68,1.27 -1.66,2.45 v 0 0 q -1.95,2.93 -3.22,5.37 v 0 0 q -1.27,2.44 -3.42,4.2 v 0 0 q -0.39,0.97 -0.97,1.66 v 0 0 Q 535.35,0 535.16,0.98 v 0 0 q -0.98,1.17 -2.74,1.75 v 0 0 q -1.76,0.59 -3.51,1.57 v 0 0 q -1.37,0.78 -3.23,1.36 v 0 0 q -1.85,0.59 -4,-0.39 v 0 0 Q 521.29,5.08 520.9,4.49 v 0 0 q -0.39,-0.58 -0.98,-0.58 v 0 0 q -0.39,-1.18 -1.27,-1.66 v 0 0 q -0.88,-0.49 -1.66,-1.27 v 0 0 Q 516.6,0.59 516.31,0.1 v 0 0 q -0.29,-0.49 -0.68,-1.08 v 0 0 Q 514.45,-2.34 513.38,-4 v 0 0 q -1.08,-1.66 -1.66,-3.81 v 0 0 q 0,-0.39 -0.1,-1.08 v 0 0 q -0.1,-0.68 -0.1,-1.27 v 0 0 q -0.19,-0.97 -0.48,-1.66 v 0 0 q -0.3,-0.68 -0.3,-2.05 v 0 0 q 0.2,-1.56 0.69,-2.93 v 0 0 q 0.48,-1.36 0.87,-2.73 v 0 0 q 0.79,-2.93 1.86,-5.37 v 0 0 q 1.07,-2.44 1.86,-5.57 v 0 0 q 0.78,-2.54 1.56,-3.91 v 0 0 q 0.58,-1.75 0.88,-2.73 v 0 0 q 0.29,-0.98 0.68,-1.76 v 0 0 q 0.39,-0.78 0.68,-1.66 v 0 0 q 0.3,-0.88 0.88,-2.44 v 0 0 q 0.59,-3.12 1.47,-5.57 v 0 0 q 0.88,-2.44 1.85,-5.17 v 0 0 q 0.59,-2.34 1.96,-6.25 v 0 0 q 1.36,-3.91 2.83,-8.01 v 0 0 q 1.46,-4.1 2.73,-7.91 v 0 0 q 1.27,-3.81 1.66,-6.35 v 0 0 q 0.59,-0.97 0.98,-2.24 v 0 0 q 0.39,-1.27 0.78,-2.25 v 0 0 q 0.78,-2.93 2.15,-6.83 v 0 0 q 1.37,-3.91 2.73,-8.01 v 0 0 q 1.37,-4.1 2.64,-8.01 v 0 0 q 1.27,-3.91 2.05,-7.03 v 0 0 q 0.78,-1.76 1.08,-4.59 v 0 0 q 0.29,-2.83 0.29,-5.57 v 0 0 q -4.88,3.32 -7.91,6.15 v 0 0 q -3.03,2.84 -6.35,5.38 v 0 0 q -0.78,1.17 -2.05,1.95 v 0 0 q -1.27,0.78 -2.25,2.15 v 0 0 q -0.97,0.19 -1.56,0.88 v 0 0 q -0.58,0.68 -1.56,1.07 v 0 0 q -0.98,0.39 -2.34,0.59 v 0 0 q -1.37,0.19 -2.54,0.19 v 0 0 q -0.59,0 -1.18,-0.19 v 0 0 q -0.58,-0.2 -1.17,-0.2 v 0 0 q -0.97,0 -2.34,0.59 v 0 0 q -1.37,0.58 -2.35,0.97 v 0 0 q -0.78,0.39 -1.26,0.78 v 0 0 q -0.49,0.4 -1.27,0.79 v 0 0 q -0.98,0.39 -1.76,0.09 v 0 0 q -0.78,-0.29 -1.76,-0.48 v 0 0 q -0.78,-0.2 -1.37,-0.1 v 0 0 q -0.58,0.1 -1.17,-0.69 v 0 0 q 0.39,-0.97 1.08,-1.56 v 0 0 q 0.68,-0.58 1.07,-1.56 v 0 0 q 1.56,-0.98 2.93,-2.93 v 0 0 q 0.98,-0.39 1.56,-1.07 v 0 0 q 0.59,-0.69 1.37,-1.27 v 0 0 q 0.58,-0.59 1.37,-1.08 v 0 0 q 0.78,-0.49 1.36,-1.27 v 0 0 q 2.15,-0.97 3.81,-2.63 v 0 0 q 1.66,-1.67 3.81,-2.64 v 0 0 q 1.95,-1.17 3.03,-2.05 v 0 0 q 1.07,-0.88 2.24,-1.47 v 0 0 q 0.79,-0.58 1.47,-1.27 v 0 0 q 0.68,-0.68 1.46,-1.27 v 0 0 q 1.96,-1.56 3.71,-2.83 v 0 0 q 1.76,-1.27 3.52,-2.64 v 0 0 q 1.95,-2.73 4,-3.9 v 0 0 q 2.05,-1.17 4.2,-2.15 v 0 0 q 0.98,-0.59 1.96,-1.07 v 0 0 q 0.97,-0.49 2.14,-0.3 v 0 0 q 0.59,0 1.08,0.1 v 0 0 q 0.49,0.1 1.07,0.1 v 0 0 q 1.96,0 2.84,0.78 v 0 0 q 0.87,0.78 2.24,1.56 v 0 0 q 0.78,0.59 1.47,1.08 v 0 0 q 0.68,0.48 1.07,1.46 v 0 0 q 0.59,0 1.07,0.29 v 0 0 q 0.49,0.3 0.88,0.69 v 0 0 q 0.39,1.17 0.98,2.24 v 0 0 q 0.59,1.08 0.39,2.64 v 0 0 q -0.19,0.98 -0.39,1.86 v 0 0 q -0.2,0.87 -0.39,1.85 v 0 0 q -0.78,1.37 -1.17,2.35 v 0 0 q -0.39,0.97 -0.78,1.95 v 0 0 q -0.39,0.78 -0.3,1.76 v 0 0 q 0.1,0.97 -0.09,1.95 v 0 0 q -0.39,1.95 -0.98,3.91 v 0 0 q -0.59,1.95 -0.98,4.1 v 0 0 q -0.39,0.58 -0.39,1.27 v 0 0 q 0,0.68 -0.19,1.27 v 0 0 q -1.18,2.34 -1.76,3.71 v 0 0 q -0.59,1.36 -1.17,3.02 v 0 0 q -0.59,1.66 -1.17,3.13 v 0 0 q -0.59,1.46 -0.79,2.05 v 0 0 q -0.39,1.56 -0.88,2.73 v 0 0 q -0.48,1.18 -0.87,2.74 v 0 0 q -0.39,1.56 -0.79,3.42 v 0 0 q -0.39,1.85 -0.78,3.61 v 0 0 q -0.58,1.76 -1.07,3.52 v 0 0 q -0.49,1.75 -0.88,3.51 v 0 0 q -0.19,0.59 -0.88,2.93 v 0 0 q -0.68,2.34 -1.46,4.88 v 0 0 q -0.78,2.54 -1.47,4.89 v 0 0 q -0.68,2.34 -0.68,2.93 v 0 0 q -0.2,0.58 -0.1,1.17 v 0 0 q 0.1,0.58 -0.49,0.97 v 0 0 q 0,1.57 -0.68,2.84 v 0 0 q -0.68,1.27 -1.47,2.83 v 0 0 q -0.58,1.56 -0.97,3.03 v 0 0 q -0.39,1.46 -1.37,2.83 v 0 0 q -1.17,3.71 -2.25,6.54 v 0 0 q -1.07,2.83 -2.05,5.47 v 0 0 q -0.97,2.64 -1.85,5.66 v 0 0 q -0.88,3.03 -1.86,6.94 v 0 0 q 0.39,0.39 0.88,0.88 v 0 0 q 0.49,0.48 0.88,0.48 v 0 0 q 0.59,0 1.27,-0.29 v 0 0 q 0.68,-0.29 1.27,-0.68 v 0 0 q 0.78,-0.39 1.46,-0.78 v 0 0 q 0.69,-0.39 1.08,-0.78 v 0 0 q 0.39,-0.39 0.58,-0.98 v 0 0 q 0.2,-0.59 0.39,-0.98 v 0 0 q 1.18,-1.36 1.37,-2.15 v 0 0 q 0.2,-0.78 0.78,-0.97 v 0 0 q 0.39,-2.15 1.66,-3.32 v 0 0 q 1.27,-1.17 1.86,-3.13 v 0 0 q 0.58,-0.39 0.78,-1.27 v 0 0 q 0.2,-0.88 0.78,-1.27 v 0 0 q 0.39,-0.97 1.27,-2.63 v 0 0 q 0.88,-1.66 1.86,-3.42 v 0 0 q 0.97,-1.76 1.85,-3.32 v 0 0 q 0.88,-1.56 1.47,-2.54 v 0 0 q 0.39,-1.37 1.07,-2.44 v 0 0 q 0.68,-1.08 1.47,-2.44 v 0 l 2.34,-3.52 v 0 q 0.39,-0.78 1.17,-1.56 v 0 0 q 0.78,-0.78 1.37,-1.56 v 0 0 q 0.39,-0.79 0.68,-1.27 v 0 0 q 0.3,-0.49 0.69,-1.08 v 0 0 q 0.58,-0.78 1.17,-1.56 v 0 0 q 0.58,-0.78 1.17,-1.56 v 0 0 q 0.59,-0.78 1.27,-1.47 v 0 0 q 0.68,-0.68 1.46,-1.46 v 0 0 q 1.37,-1.57 2.15,-3.32 v 0 0 q 0.78,-1.76 1.96,-3.13 v 0 0 q 0.97,-2.54 2.34,-4.69 v 0 0 q 1.37,-2.14 2.93,-4.29 v 0 0 q 1.17,-2.35 2.34,-4.59 v 0 0 q 1.17,-2.25 2.74,-4.4 v 0 0 q 1.17,-2.54 2.93,-4.29 v 0 0 q 1.17,-2.35 1.36,-2.35 v 0 0 q 2.15,-3.32 4.3,-6.25 v 0 0 q 2.15,-2.93 4.49,-6.25 v 0 0 q 0.98,-1.17 1.66,-2.34 v 0 0 q 0.69,-1.17 1.66,-2.15 v 0 0 q 1.57,-2.73 3.13,-4.69 v 0 0 q 1.56,-1.95 3.12,-3.51 v 0 0 q 2.35,-1.57 3.03,-1.76 v 0 0 q 0.68,-0.2 1.27,-0.59 v 0 0 q 1.56,-0.97 2.05,-1.46 v 0 0 q 0.49,-0.49 0.88,-0.88 v 0 0 q 0.39,-0.39 0.78,-0.88 v 0 0 q 0.39,-0.49 0.39,-1.07 v 0 0 q 0.78,-0.78 1.27,-1.18 v 0 0 q 0.49,-0.39 0.88,-0.97 v 0 0 q 0.98,-0.98 1.66,-1.95 v 0 0 q 0.68,-0.98 2.25,0 v 0 0 q 0.78,0.39 1.56,1.75 v 0 0 q 0.39,0.39 0.88,1.08 v 0 0 q 0.49,0.68 0.68,1.27 v 0 0 q 0.2,0.97 -0.1,2.24 v 0 0 q -0.29,1.27 0.1,2.44 v 0 0 q 0.78,2.15 1.56,4.3 v 0 0 q 0.79,2.15 0.39,5.27 v 0 0 q -0.78,1.37 -1.07,3.23 v 0 0 q -0.29,1.85 -0.68,3.81 v 0 0 q -0.59,2.34 -1.18,3.71 v 0 0 q -0.58,1.36 -0.39,2.54 v 0 0 q -0.78,1.56 -0.97,3.32 v 0 0 q -0.2,1.75 -0.59,3.32 v 0 0 q -0.58,2.93 -1.56,5.56 v 0 0 q -0.98,2.64 -1.17,5.57 v 0 0 q -0.2,2.73 -1.17,6.54 v 0 0 q -0.98,3.81 -1.37,6.74 v 0 0 q -0.39,1.37 -0.1,2.25 v 0 0 q 0.29,0.88 0.29,2.05 v 0 0 q -0.39,3.12 -0.39,4.39 v 0 0 q 0,1.27 -0.19,2.64 v 0 0 q -0.2,0.98 -0.39,2.05 v 0 0 q -0.2,1.07 -0.39,2.05 v 0 0 q -0.39,1.37 -0.59,2.64 v 0 0 q -0.19,1.27 -0.78,2.24 v 0 0 q -0.39,2.35 -0.78,4.79 v 0 0 q -0.39,2.44 -0.98,4.39 v 0 0 q 0.2,0.78 -0.1,1.47 v 0 0 q -0.29,0.68 -0.48,1.46 v 0 0 q -0.4,0.98 -0.3,2.15 v 0 0 q 0.1,1.17 -0.29,2.15 v 0 0 q -0.2,0.98 -0.29,2.25 v 0 0 q -0.1,1.26 -0.49,2.24 v 0 0 q -0.98,2.54 -0.88,3.91 v 0 0 q 0.1,1.36 -0.49,2.34 v 0 0 q 0.2,1.56 -0.68,3.22 v 0 0 q -0.88,1.66 -0.49,3.23 v 0 0 q 0.98,-0.78 1.56,-1.76 v 0 0 q 0.59,-0.98 1.37,-1.95 v 0 0 q 0.58,-0.98 1.37,-1.66 v 0 0 q 0.78,-0.69 1.56,-1.66 v 0 0 q 1.56,-1.57 2.73,-3.72 v 0 0 q 1.17,-2.14 2.15,-4.29 v 0 0 q 0.39,-0.59 0.88,-1.76 v 0 0 q 0.49,-1.17 0.88,-2.15 v 0 0 q 1.76,-2.73 3.51,-6.64 v 0 0 q 0.4,-0.78 0.69,-1.46 v 0 0 q 0.29,-0.69 0.49,-1.47 v 0 0 q 0.58,-1.76 0.97,-3.51 v 0 0 q 0.39,-1.76 0.98,-3.52 v 0 0 q 0.39,-0.78 0.68,-1.46 v 0 0 q 0.3,-0.69 0.69,-1.47 v 0 0 q 0.97,-1.95 2.05,-3.81 v 0 0 q 1.07,-1.85 2.24,-3.42 v 0 0 q 1.57,-3.32 2.54,-4.88 v 0 0 q 0.98,-1.56 1.86,-3.12 v 0 0 q 0.88,-1.57 1.85,-3.23 v 0 0 q 0.98,-1.66 2.15,-4.2 v 0 0 q 0.59,-0.39 0.88,-1.07 v 0 0 q 0.29,-0.68 0.68,-1.27 v 0 0 q 0.59,-2.15 1.27,-3.61 v 0 0 q 0.69,-1.47 1.27,-3.03 v 0 0 q 0.59,-0.39 0.88,-1.17 v 0 0 q 0.3,-0.78 0.88,-1.17 v 0 0 q 0.78,-1.76 1.66,-3.13 v 0 0 q 0.88,-1.37 1.86,-2.93 v 0 0 q 0.78,-1.17 1.17,-1.85 v 0 0 q 0.39,-0.69 0.78,-1.47 v 0 0 q 1.17,-2.34 1.37,-2.54 v 0 0 q 1.56,-1.76 1.76,-2.15 v 0 0 q 0.19,-0.39 0.29,-0.68 v 0 0 q 0.1,-0.29 0.29,-0.59 v 0 0 q 0.2,-0.29 0.78,-0.88 v 0 0 q 0.59,-1.36 0.88,-1.75 v 0 0 q 0.29,-0.39 0.49,-0.69 v 0 0 q 0.2,-0.29 0.49,-0.78 v 0 0 q 0.29,-0.49 0.88,-1.85 v 0 0 q 1.56,-2.15 1.75,-2.74 v 0 0 q 0.2,-0.58 1.57,-2.54 v 0 0 q 0.39,-0.39 0.58,-1.17 v 0 0 q 0.2,-0.78 0.59,-1.17 v 0 0 q 1.76,-2.34 2.25,-3.13 v 0 0 q 0.48,-0.78 1.07,-1.56 v 0 0 q 0.98,-1.37 1.95,-2.73 v 0 0 q 0.98,-1.37 1.96,-2.93 v 0 0 q 0.97,-0.98 1.95,-1.66 v 0 0 q 0.98,-0.69 1.95,-1.66 v 0 0 q 0.78,0 1.47,-0.59 v 0 0 q 0.68,-0.58 1.27,-1.37 v 0 0 q 2.34,-0.58 4,-2.14 v 0 0 q 1.66,-1.57 3.61,-3.13 v 0 0 q 1.37,-0.98 2.64,-1.95 v 0 0 q 1.27,-0.98 2.25,-2.35 v 0 0 q 1.75,-1.56 4,-1.75 v 0 0 q 2.25,-0.2 3.42,1.17 z m 2.93,50 1.95,0.58 v 0 q 0.39,0.59 0.39,1.18 v 0 0 q 0,0.58 0.59,0.97 v 0 0 q -0.39,1.76 -0.69,3.62 v 0 0 q -0.29,1.85 -0.29,3.61 v 0 0 q 0,0.78 0.49,1.37 v 0 0 q 0.49,0.58 0.49,1.17 v 0 0 q -0.98,2.34 -1.47,2.73 v 0 0 q -0.49,0.39 -0.49,0.98 v 0 0 q -0.97,0.39 -1.46,1.17 v 0 0 q -0.49,0.78 -1.66,0.78 v 0 0 q -0.39,0.59 -0.88,0.88 v 0 0 q -0.49,0.29 -0.68,1.08 v 0 0 q -3.13,1.36 -7.03,-0.2 v 0 0 q -0.98,-1.76 -2.74,-2.54 v 0 0 q -2.54,-3.71 -0.19,-8.79 v 0 0 q 0.39,-0.97 0.87,-2.05 v 0 0 q 0.49,-1.07 0.88,-1.46 v 0 0 q 2.15,-1.57 3.13,-1.96 v 0 0 q 0.78,-0.39 1.66,-0.97 v 0 0 q 0.88,-0.59 2.05,-0.98 v 0 0 q 0.39,-0.2 1.07,-0.2 v 0 0 q 0.69,0 1.47,-0.39 v 0 0 q 0.78,-0.19 1.37,-0.39 v 0 0 q 0.58,-0.19 1.17,-0.19 z m -29.3,86.52 0.98,0.39 v 0 q 1.76,-0.78 4.29,-0.58 v 0 0 q 2.54,0.19 4.11,-0.78 v 0 0 q 0.78,-0.59 1.36,-1.18 v 0 0 q 0.59,-0.58 1.37,-0.39 v 0 0 q 3.13,-1.17 5.27,-2.34 v 0 0 q 2.15,-1.17 4.69,-1.76 v 0 0 q 0.59,-0.19 1.47,-0.78 v 0 0 q 0.88,-0.59 1.27,-0.98 v 0 0 q 3.12,-0.97 4.49,-1.95 v 0 0 q 1.37,-0.98 2.63,-1.95 v 0 0 q 1.27,-0.98 2.54,-2.05 v 0 0 q 1.27,-1.08 3.23,-2.64 v 0 0 q 2.73,-1.56 4.59,-2.73 v 0 0 q 1.85,-1.18 4,-2.93 v 0 0 q 0.39,-0.98 1.07,-1.47 v 0 0 q 0.69,-0.49 1.08,-1.27 v 0 0 q 3.51,0 3.9,2.74 v 0 0 q -0.97,2.14 -2.63,3.51 v 0 0 q -1.66,1.37 -3.03,3.13 v 0 0 q -1.56,0.97 -2.54,1.75 v 0 0 q -0.97,0.79 -1.95,2.35 v 0 0 q -0.2,0 -1.17,0.88 v 0 0 q -0.98,0.88 -1.18,0.88 v 0 0 q -1.17,1.36 -1.66,1.75 v 0 0 q -0.48,0.39 -0.78,0.49 v 0 0 q -0.29,0.1 -0.78,0.49 v 0 0 q -0.49,0.39 -1.85,1.56 v 0 0 q -1.37,2.15 -3.52,3.52 v 0 0 q -4.1,3.9 -8.89,6.74 v 0 0 q -4.78,2.83 -8.69,5.56 v 0 0 q -0.78,0.39 -1.36,1.08 v 0 0 q -0.59,0.68 -1.37,1.27 v 0 0 q -0.98,0.78 -3.03,1.56 v 0 0 q -2.05,0.78 -3.61,1.37 v 0 0 q -1.17,0.78 -2.15,1.17 v 0 0 q -4.3,0.19 -6.64,-1.37 v 0 0 q -2.54,-1.37 -3.91,-2.15 v 0 0 q -1.36,-0.78 -2.34,-2.54 v 0 0 q -2.15,-0.97 -2.64,-3.61 v 0 0 q -0.49,-2.64 -1.07,-5.18 v 0 0 q -0.2,-0.97 -0.39,-2.24 v 0 0 q -0.2,-1.27 0,-2.64 v 0 0 q 0.39,-2.15 0.58,-4.59 v 0 0 q 0.2,-2.44 0.98,-4.2 v 0 0 q 0.98,-2.15 1.07,-4.29 v 0 0 q 0.1,-2.15 1.08,-4.3 v 0 0 q 1.17,-1.95 1.07,-2.15 v 0 0 q -0.1,-0.2 0.1,-0.59 v 0 0 q 0.39,-0.58 0.88,-1.17 v 0 0 q 0.49,-0.58 0.88,-1.36 v 0 l 1.17,-2.93 v 0 q 0.78,-1.37 1.76,-2.74 v 0 0 q 0.97,-1.37 1.56,-3.32 v 0 0 q 0.39,-1.17 1.07,-2.15 v 0 0 q 0.69,-0.97 1.47,-2.15 v 0 0 q 0.59,-1.17 0.98,-2.44 v 0 0 q 0.39,-1.27 0.97,-2.63 v 0 0 q 0.59,-1.57 1.47,-3.13 v 0 0 q 0.88,-1.56 1.85,-3.12 v 0 0 q 0.78,-1.57 1.37,-2.35 v 0 0 q 0.59,-0.78 2.34,-0.97 v 0 0 q 0.78,-0.2 1.76,0.09 v 0 0 q 0.98,0.3 1.95,-0.09 v 0 0 q 2.54,-1.18 3.52,-1.18 v 0 0 q 0.98,0 1.37,-0.58 v 0 0 q 2.15,0.19 3.12,1.36 v 0 0 q 0.98,1.18 2.35,2.35 v 0 0 q -1.18,5.66 -2.64,8.69 v 0 0 q -1.47,3.03 -3.22,6.35 v 0 0 q -0.98,1.56 -1.96,3.51 v 0 0 q -0.97,1.96 -1.75,3.52 v 0 0 q -0.98,2.15 -2.06,3.81 v 0 0 q -1.07,1.66 -1.85,3.81 v 0 0 q -0.39,0.97 -0.88,1.85 v 0 0 q -0.49,0.88 -0.88,1.86 v 0 0 q -0.39,1.36 -1.07,2.44 v 0 0 q -0.69,1.07 -1.27,2.05 v 0 0 q -0.59,1.17 -1.17,2.34 v 0 0 q -0.59,1.17 -0.98,2.54 v 0 0 q -0.98,2.35 -1.17,2.83 v 0 0 q -0.2,0.49 -0.39,0.88 v 0 0 q -0.39,2.15 -1.17,3.52 v 0 0 q -0.79,1.37 0.58,1.95 z m 101.17,-34.76 v 0 0 q 2.15,0.58 2.83,1.36 v 0 0 q 0.69,0.78 0.69,1.57 v 0 0 q -1.56,2.14 -1.86,2.83 v 0 0 q -0.29,0.68 -1.27,1.07 v 0 0 q -2.54,3.91 -5.76,6.94 v 0 0 q -3.22,3.02 -5.96,6.73 v 0 0 q -0.97,0.98 -1.75,1.96 v 0 0 q -0.78,0.97 -1.76,1.95 v 0 0 q -2.15,1.56 -3.91,3.42 v 0 0 q -1.75,1.85 -3.71,3.42 v 0 0 q -0.97,0.78 -1.85,1.46 v 0 0 q -0.88,0.68 -1.86,1.66 v 0 0 q -0.98,0.98 -1.76,1.56 v 0 0 q -0.78,0.59 -1.75,1.37 v 0 0 q -1.18,1.37 -2.35,2.74 v 0 0 q -1.17,1.36 -2.34,2.92 v 0 0 q -2.15,0.98 -3.91,2.35 v 0 0 q -1.76,1.37 -4.1,2.34 v 0 0 q -0.98,0.59 -1.86,1.86 v 0 0 q -0.87,1.27 -2.24,1.66 v 0 0 q -1.56,0.58 -3.32,0.29 v 0 0 q -1.76,-0.29 -2.93,-0.88 v 0 0 q -0.98,-0.78 -1.56,-0.97 v 0 0 q -0.59,-0.2 -0.98,-0.2 v 0 0 q -1.76,-2.54 -2.54,-5.57 v 0 0 q -0.78,-3.02 -1.76,-6.34 v 0 0 q -0.39,-0.98 -0.58,-2.05 v 0 0 q -0.2,-1.08 -0.39,-2.45 v 0 0 q -0.2,-0.78 -0.3,-1.56 v 0 0 q -0.09,-0.78 -0.49,-1.76 v 0 0 q -0.39,-0.97 -0.78,-2.05 v 0 0 q -0.39,-1.07 -0.58,-2.24 v 0 0 q -0.39,-2.35 -0.3,-4.59 v 0 0 q 0.1,-2.25 0.49,-4.4 v 0 0 q 1.17,-6.44 3.42,-12.3 v 0 0 q 2.25,-5.86 4.59,-11.14 v 0 0 q 0.39,-2.14 1.07,-3.71 v 0 0 q 0.69,-1.56 1.27,-3.51 v 0 0 q 0.98,-1.37 1.37,-3.13 v 0 0 q 0.39,-1.75 0.98,-3.51 v 0 0 q 0.58,-1.56 1.46,-3.42 v 0 0 q 0.88,-1.86 1.27,-3.61 v 0 0 q 0.59,-1.96 1.08,-3.91 v 0 0 q 0.49,-1.95 1.27,-3.52 v 0 0 q 1.56,-4.1 2.93,-7.81 v 0 0 q 1.36,-3.71 2.93,-7.42 v 0 0 q 0.39,-1.17 0.78,-2.34 v 0 0 q 0.39,-1.18 1.17,-2.15 v 0 0 q 0.39,-1.17 0.98,-2.05 v 0 0 q 0.58,-0.88 1.17,-1.86 v 0 0 q 0,-0.97 0.68,-1.46 v 0 0 q 0.68,-0.49 1.08,-1.27 v 0 0 q 0.97,-1.57 1.46,-3.13 v 0 0 q 0.49,-1.56 1.46,-3.12 v 0 l 2.35,-2.93 v 0 q 0.39,-0.78 0.78,-1.56 v 0 0 q 0.39,-0.79 1.17,-1.37 v 0 0 q 2.15,-3.52 4.69,-7.03 v 0 0 q 2.54,-3.52 5.27,-7.43 v 0 0 q 1.76,-2.73 3.91,-5.17 v 0 0 q 2.15,-2.44 4.49,-4.79 v 0 0 q 0.78,-0.97 1.86,-2.14 v 0 0 q 1.07,-1.18 2.24,-1.37 v 0 0 q 1.76,-0.2 3.91,0.39 v 0 0 q 0.58,0.98 1.07,2.05 v 0 0 q 0.49,1.07 0.88,2.44 v 0 0 q 0.39,6.06 -0.39,11.72 v 0 0 q -0.78,5.66 -1.76,11.13 v 0 0 q -0.19,0.98 -0.09,1.86 v 0 0 q 0.09,0.88 -0.1,1.85 v 0 0 q -0.39,1.18 -0.98,3.03 v 0 0 q -0.58,1.86 -0.97,3.42 v 0 0 q 0,2.73 -1.18,4.88 v 0 0 q -1.17,2.15 -1.56,4.3 v 0 0 q -0.59,0.39 -0.68,1.27 v 0 0 q -0.1,0.88 -0.69,1.27 v 0 0 q -0.39,2.15 -1.27,3.9 v 0 0 q -0.87,1.76 -1.46,3.52 v 0 0 q -2.93,4.1 -5.96,7.91 v 0 0 q -3.03,3.81 -5.76,7.91 v 0 0 q -3.32,5.08 -7.13,9.77 v 0 0 q -3.81,4.68 -7.13,9.76 v 0 0 q -2.54,2.15 -4.29,4.88 v 0 0 q -1.76,2.74 -4.5,4.89 v 0 0 q -0.97,3.9 -1.85,8.49 v 0 0 q -0.88,4.59 -1.86,9.28 v 0 0 q -0.19,1.37 -0.58,2.64 v 0 0 q -0.39,1.27 -0.78,2.63 v 0 0 q -0.4,1.57 -0.2,3.32 v 0 0 q 0.2,1.76 -0.59,3.32 v 0 0 q 0.39,0.98 0.49,2.25 v 0 0 q 0.1,1.27 0.69,2.25 v 0 0 q 0.39,0.58 1.07,1.17 v 0 0 q 0.68,0.58 1.27,0.58 v 0 0 q 1.37,-0.78 1.56,-0.68 v 0 0 q 0.2,0.1 0.59,-0.1 v 0 0 q 0.97,-0.58 1.95,-1.56 v 0 0 q 0.98,-0.98 1.76,-1.76 v 0 0 q 0.98,-0.39 1.46,-0.88 v 0 0 q 0.49,-0.48 1.08,-0.88 v 0 0 q 0.58,-0.39 1.07,-0.58 v 0 0 q 0.49,-0.2 0.88,-0.59 v 0 0 q 2.74,-2.93 5.27,-4.39 v 0 0 q 2.54,-1.47 4.11,-3.61 v 0 0 q 1.95,-1.18 3.51,-2.15 v 0 0 q 1.17,-0.59 2.05,-1.66 v 0 0 q 0.88,-1.08 2.25,-1.66 v 0 0 q 0.39,-0.59 0.78,-0.98 v 0 0 q 0.39,-0.39 0.78,-0.98 v 0 0 q 2.35,-1.56 4.59,-3.12 v 0 0 q 2.25,-1.56 4.79,-3.13 v 0 0 q 0.39,-0.97 1.27,-1.56 v 0 0 q 0.87,-0.59 1.46,-1.17 v 0 0 q 0.59,-0.59 0.98,-1.27 v 0 0 q 0.39,-0.68 1.36,-0.88 v 0 0 q 0.2,-0.98 0.88,-1.37 v 0 0 q 0.69,-0.39 1.27,-1.36 z m -10.54,-72.86 h -0.2 v 0 q -1.76,0.4 -2.44,1.76 v 0 0 q -0.68,1.37 -1.27,3.13 v 0 0 q -0.78,1.56 -1.27,2.34 v 0 0 q -0.49,0.78 -0.29,2.34 v 0 0 q -6.06,9.97 -11.04,20.9 v 0 0 q -4.98,10.94 -10.06,22.07 v 0 0 q 3.91,-3.9 7.33,-9.37 v 0 0 q 3.42,-5.47 7.13,-9.38 v 0 0 q 2.73,-6.64 6.05,-12.4 v 0 0 q 3.32,-5.76 5.08,-12.99 v 0 0 q -0.78,-2.34 0.19,-4.2 v 0 0 q 0.98,-1.85 0.79,-4.2 z m 19.53,89.26 1.17,0.98 v 0 q 0.39,0.78 -0.29,2.15 v 0 0 q -0.69,1.36 -1.08,2.34 v 0 0 q 0.2,0.78 0.39,1.27 v 0 0 q 0.2,0.49 -0.19,1.27 v 0 0 q 1.36,0.98 1.76,2.25 v 0 0 q 0.39,1.27 1.36,2.63 v 0 0 q 0.98,1.17 2.05,1.96 v 0 0 q 1.08,0.78 2.05,1.75 v 0 0 q 0.98,-0.58 1.57,-0.58 v 0 0 q 0.58,0 1.56,-0.39 v 0 0 q 1.76,-2.35 2.73,-5.47 v 0 0 q 0.2,-0.78 0.39,-1.76 v 0 0 q 0.2,-0.98 0.2,-1.76 v 0 0 q -0.2,-2.73 -1.56,-5.27 v 0 0 q -1.37,-2.54 -2.15,-5.27 v 0 0 q -0.78,-1.57 -0.49,-3.52 v 0 0 q 0.29,-1.95 -0.1,-3.52 v 0 0 q -0.19,-0.97 -0.58,-1.56 v 0 0 q -0.39,-0.58 -0.78,-1.36 v 0 0 q -0.4,-1.57 -0.3,-3.52 v 0 0 q 0.1,-1.95 -0.88,-3.32 v 0 0 q -0.78,0.78 -2.54,2.93 v 0 0 q -1.75,2.15 -3.71,4.69 v 0 0 q -1.95,2.54 -3.61,4.68 v 0 0 q -1.66,2.15 -2.44,2.93 v 0 0 q -0.98,1.37 -2.15,2.45 v 0 0 q -1.17,1.07 -2.15,2.44 v 0 0 q -0.78,0.97 -2.64,3.22 v 0 0 q -1.85,2.25 -3.8,4.78 v 0 0 q -1.96,2.54 -3.62,4.79 v 0 0 q -1.66,2.25 -2.24,3.03 v 0 0 q -0.39,0.58 -2.05,2.93 v 0 0 q -1.66,2.34 -3.71,5.07 v 0 0 q -2.06,2.74 -3.72,5.08 v 0 0 q -1.66,2.35 -2.05,3.13 v 0 0 q -1.17,1.95 -3.02,3.42 v 0 0 q -1.86,1.46 -4.4,1.46 v 0 0 q -0.19,-0.19 -0.39,-1.07 v 0 0 q -0.19,-0.88 -0.29,-1.86 v 0 0 q -0.1,-0.98 -0.39,-1.85 v 0 0 q -0.3,-0.88 -0.49,-1.27 v 0 0 q 0.59,-1.18 0.88,-2.35 v 0 0 q 0.29,-1.17 1.66,-2.15 v 0 0 q 0.39,-1.36 2.34,-4.39 v 0 0 q 1.96,-3.03 4.3,-6.35 v 0 0 q 2.34,-3.32 4.39,-6.25 v 0 0 q 2.05,-2.93 2.84,-4.1 v 0 0 q 0.78,-0.78 2.53,-2.93 v 0 0 q 1.76,-2.15 3.52,-4.59 v 0 0 q 1.76,-2.44 3.42,-4.59 v 0 0 q 1.66,-2.15 2.44,-3.12 v 0 0 q 0.59,-1.76 2.54,-4.79 v 0 0 q 1.95,-3.03 4.3,-6.25 v 0 0 q 2.34,-3.22 4.59,-6.15 v 0 0 q 2.24,-2.93 3.41,-4.69 v 0 0 q 0.98,-1.56 1.66,-2.73 v 0 0 q 0.69,-1.18 1.47,-2.54 v 0 0 q 0.39,-0.39 0.78,-0.88 v 0 0 q 0.39,-0.49 0.59,-0.88 v 0 0 q 0.39,-1.56 -0.4,-2.25 v 0 0 q -0.78,-0.68 -0.58,-2.05 v 0 0 q 1.56,-3.12 3.42,-4.2 v 0 0 q 1.85,-1.07 3.41,-3.22 v 0 0 q 0.98,-0.78 1.86,-1.17 v 0 0 q 0.88,-0.39 1.86,-1.37 v 0 0 q 0.78,-0.78 1.95,-0.88 v 0 0 q 1.17,-0.1 2.24,0.2 v 0 0 q 1.08,0.29 1.96,0.78 v 0 0 q 0.88,0.49 1.07,0.88 v 0 0 q 0.2,0.58 0,1.56 v 0 0 q -0.19,0.98 -0.39,1.95 v 0 0 q -0.39,1.76 -0.78,3.23 v 0 0 q -0.39,1.46 -0.78,3.22 v 0 0 q -0.39,2.15 -0.68,4.1 v 0 0 q -0.3,1.95 1.27,3.71 v 0 0 q -0.2,0.98 0.09,2.35 v 0 0 q 0.3,1.36 0.69,2.53 v 0 0 q 0.39,6.25 2.24,12.41 v 0 0 q 1.86,6.15 4.01,11.23 v 0 0 q 0,0.97 0.29,1.95 v 0 0 q 0.29,0.98 0.68,1.95 v 0 0 q 0.59,6.25 -1.17,12.41 v 0 0 q -1.76,6.15 -3.32,12.01 v 0 0 q -1.17,1.95 -1.95,4.49 v 0 0 q -0.39,1.17 -0.78,1.95 v 0 0 q -0.39,0.78 -1.18,1.76 v 0 0 q -0.97,1.56 -1.75,3.52 v 0 0 q -0.78,1.95 -3.13,3.12 v 0 0 q -1.37,0.39 -2.64,0 v 0 0 q -1.26,-0.39 -2.44,0 v 0 0 q -0.97,0.2 -1.75,0.49 v 0 0 q -0.79,0.29 -1.57,0.29 v 0 0 Q 780.66,8.2 779,7.32 v 0 0 q -1.66,-0.87 -4,-1.27 v 0 0 q 0,-0.58 -0.59,-0.87 v 0 0 q -0.58,-0.3 -0.97,-0.69 v 0 0 Q 772.66,1.37 771.88,0 v 0 0 q -0.79,-1.37 -1.18,-2.93 v 0 0 q -0.58,-2.15 -0.58,-4.2 v 0 0 q 0,-2.05 -0.98,-4.2 v 0 0 q -0.78,-1.56 -0.68,-2.15 v 0 0 q 0.09,-0.58 0.09,-1.17 v 0 0 q 0,-2.54 -0.29,-5.56 v 0 0 q -0.29,-3.03 2.44,-4.99 v 0 0 q 0.98,-0.78 1.47,-2.05 v 0 0 q 0.49,-1.27 1.66,-2.24 v 0 0 q 0.39,-0.39 1.27,-0.39 v 0 0 q 0.88,0 1.27,0.19 z m 138.47,-26.76 v 0 0 q 0.98,0.2 1.27,0.79 v 0 0 q 0.3,0.58 1.08,0.58 v 0 0 q 0.19,0.98 -0.1,1.56 v 0 0 q -0.29,0.59 -0.68,1.08 v 0 0 q -0.39,0.49 -0.69,0.98 v 0 0 q -0.29,0.48 -0.09,1.26 v 0 0 q -1.76,1.18 -4.3,1.47 v 0 0 q -2.54,0.29 -3.91,2.05 v 0 0 q -3.32,1.56 -7.13,2.05 v 0 0 q -3.81,0.49 -7.91,1.27 v 0 0 q -1.95,1.37 -2.63,1.56 v 0 0 q -0.69,0.2 -1.47,0.59 v 0 0 q -1.95,-0.78 -4.1,-0.78 v 0 0 q -2.15,0 -4.3,-0.59 v 0 0 q -1.17,0.39 -2.24,0.39 v 0 0 q -1.08,0 -2.25,0.39 v 0 0 q -0.78,1.57 -0.78,3.52 v 0 0 q 0,1.95 -0.59,3.51 v 0 l -1.17,2.35 v 0 q -0.19,0.97 -0.29,1.85 v 0 0 q -0.1,0.88 -0.49,1.86 v 0 0 q -0.39,0.58 -0.88,1.37 v 0 0 q -0.49,0.78 -0.49,1.75 v 0 0 q -1.36,1.57 -1.95,3.62 v 0 0 q -0.59,2.05 -2.15,3.42 v 0 0 q -0.58,1.95 -1.85,3.12 v 0 0 q -1.27,1.17 -2.45,2.73 v 0 0 q -2.14,2.93 -3.8,5.08 v 0 0 q -1.66,2.15 -4.4,3.71 v 0 0 q -0.97,1.57 -2.34,2.15 v 0 0 q -1.17,1.17 -1.56,1.96 v 0 0 q -1.76,0.97 -3.91,2.34 v 0 0 q -2.15,1.37 -4.49,1.95 v 0 0 q -3.32,0.78 -6.45,-0.19 v 0 0 q -3.12,-0.98 -5.86,-2.74 v 0 0 q -1.76,0.2 -2.83,-0.68 v 0 0 Q 825.59,0 824.02,-0.39 v 0 0 q -2.14,-1.95 -4.68,-3.52 v 0 0 q -2.54,-1.56 -3.71,-4.29 v 0 0 q -0.4,-2.15 -0.88,-4.3 v 0 0 q -0.49,-2.15 -0.88,-3.91 v 0 0 q -0.39,-1.75 -0.1,-3.71 v 0 0 q 0.29,-1.95 0.1,-3.9 v 0 0 q 0,-2.15 -0.1,-3.62 v 0 0 q -0.1,-1.46 0.88,-3.61 v 0 0 q 1.17,-2.54 1.56,-4.2 v 0 0 q 0.39,-1.66 0.78,-2.83 v 0 0 q 0.59,-0.98 1.17,-2.15 v 0 0 q 0.59,-1.17 1.37,-2.15 v 0 0 q 1.17,-1.76 2.74,-3.51 v 0 0 q 1.56,-1.76 3.12,-3.32 v 0 0 q 1.17,-1.57 2.15,-2.54 v 0 0 q 1.56,-1.57 3.32,-2.93 v 0 0 q 1.76,-1.37 3.52,-3.13 v 0 0 q 0.39,-0.58 0.97,-0.97 v 0 0 q 0.59,-0.4 1.17,-0.79 v 0 0 q 1.96,-1.17 3.62,-1.95 v 0 0 q 1.66,-0.78 3.81,-1.76 v 0 0 q 1.56,-0.78 3.02,-1.07 v 0 0 q 1.47,-0.29 3.42,-0.68 v 0 0 q 1.37,0 2.34,0 v 0 0 q 0.98,0 1.96,-0.4 v 0 0 q -0.59,-1.56 1.36,-2.14 v 0 0 q 1.96,-0.59 2.93,-0.39 v 0 0 q 1.96,0 3.13,0.87 v 0 0 q 1.17,0.88 2.15,2.06 v 0 0 q 2.15,1.56 4.29,4.1 v 0 0 q 0.4,0.39 0.98,0.58 v 0 0 q 0.59,0.2 0.98,0.59 v 0 0 q 0.78,0.98 1.07,2.15 v 0 0 q 0.3,1.17 1.27,2.15 v 0 0 q 0.59,0.39 1.17,0.97 v 0 0 q 0.59,0.59 0.78,1.56 v 0 0 q 0.98,0.4 1.86,0.69 v 0 0 q 0.88,0.29 1.86,0.49 v 0 0 q 0.97,0.39 2.05,0.19 v 0 0 q 1.07,-0.19 2.44,0 v 0 0 q 0.97,0.2 1.76,0.49 v 0 0 q 0.78,0.29 1.75,0.29 v 0 0 q 1.57,-0.19 3.23,-0.78 v 0 0 q 1.66,-0.58 3.8,-0.19 v 0 0 q 2.93,0.78 6.16,-0.59 v 0 0 q 3.22,-1.37 6.54,-1.76 v 0 0 q 0.78,0 1.37,-0.09 v 0 0 q 0.58,-0.1 1.36,-0.1 v 0 0 q 0.98,-0.78 2.54,-1.17 v 0 0 q 1.57,-0.39 3.32,-0.79 z m -55.86,5.86 v 0 0 q -1.95,-1.75 -2.24,-2.24 v 0 0 q -0.29,-0.49 -0.69,-0.69 v 0 0 q -0.78,-0.78 -1.95,-0.97 v 0 0 q -1.17,-0.2 -2.15,-0.39 v 0 0 q -3.12,-0.59 -5.17,0.68 v 0 0 q -2.05,1.27 -4.01,2.44 v 0 0 q -3.12,1.96 -5.47,4.88 v 0 0 q -0.58,0.98 -1.26,2.15 v 0 0 q -0.69,1.18 -1.08,2.54 v 0 0 q -0.78,1.56 -1.37,2.83 v 0 0 q -0.58,1.27 -0.97,3.03 v 0 0 q -0.98,1.95 -1.17,3.22 v 0 0 q -0.2,1.27 -0.4,2.25 v 0 0 q -0.19,1.95 -0.68,4.1 v 0 0 q -0.49,2.15 -0.49,3.71 v 0 0 q 0.2,0.59 0.59,1.57 v 0 0 q 0.39,0.97 0.78,1.36 v 0 0 q 0.39,0.98 0.88,2.15 v 0 0 q 0.49,1.17 0.88,1.76 v 0 0 q 0.97,1.37 2.54,1.76 v 0 0 q 1.56,0.39 3.51,0.97 v 0 0 q 2.15,1.18 2.93,0.98 v 0 0 q 0.78,-0.2 1.17,-0.2 v 0 0 q 2.54,-0.39 4.5,-2.14 v 0 0 q 1.95,-1.76 3.9,-2.74 v 0 0 q 1.57,-2.34 3.42,-4.98 v 0 0 q 1.86,-2.64 3.42,-5.37 v 0 0 q 0.58,-0.78 0.98,-1.76 v 0 0 q 0.39,-0.97 0.78,-1.76 v 0 0 q 1.36,-1.56 1.27,-1.75 v 0 0 q -0.1,-0.2 0.09,-0.59 v 0 0 q 1.37,-2.93 1.18,-4.49 v 0 0 q -0.2,-1.56 0,-3.13 v 0 0 q -0.98,-2.14 -1.66,-4.68 v 0 0 q -0.69,-2.54 -2.06,-4.5 z m 48.83,26.57 v 0 0 q 1.57,-0.98 2.54,-2.54 v 0 0 q 0.98,-1.57 2.35,-3.13 v 0 0 q 2.53,-2.93 5.46,-4.88 v 0 0 q 1.37,-1.95 3.42,-3.03 v 0 0 q 2.05,-1.07 3.22,-3.22 v 0 0 q 0.4,-0.59 0.69,-1.17 v 0 0 q 0.29,-0.59 0.68,-1.17 v 0 0 q 3.52,-4.89 8.01,-8.6 v 0 0 q 1.17,-0.97 2.25,-1.95 v 0 0 q 1.07,-0.98 2.63,-1.95 v 0 0 q 1.76,-0.98 3.42,-2.54 v 0 0 q 1.66,-1.57 3.61,-2.35 v 0 0 q 1.37,-0.58 2.54,-0.88 v 0 0 q 1.17,-0.29 2.54,-0.68 v 0 0 q 1.37,-0.39 2.44,-0.68 v 0 0 q 1.08,-0.3 2.44,0.09 v 0 0 q 3.13,1.37 4.69,5.28 v 0 0 q 0.39,0.97 -0.29,4.2 v 0 0 q -0.68,3.22 -1.76,7.03 v 0 0 q -1.07,3.81 -2.24,7.32 v 0 0 q -1.18,3.52 -1.57,5.08 v 0 0 q -0.39,1.56 -0.19,1.66 v 0 0 q 0.19,0.1 0.19,0.49 v 0 0 q -0.39,0.98 -0.58,1.76 v 0 0 q -0.2,0.78 -0.39,1.75 v 0 0 q -0.39,1.57 -0.59,4.2 v 0 0 q -0.19,2.64 0.2,4.2 v 0 0 q 2.14,-0.19 2.24,-0.39 v 0 0 q 0.1,-0.19 0.49,-0.19 v 0 0 q 0.59,-0.2 1.27,-0.1 v 0 0 q 0.68,0.1 1.27,-0.1 v 0 0 q 2.15,-0.58 3.91,-1.66 v 0 0 q 1.75,-1.07 3.32,-2.63 v 0 0 q 3.51,-1.57 6.44,-3.13 v 0 0 q 2.74,-1.95 4.4,-2.83 v 0 0 q 1.66,-0.88 4.98,-2.44 v 0 0 q 1.17,-1.37 3.41,-2.44 v 0 0 q 2.25,-1.08 3.81,-2.45 v 0 0 q 0.39,-0.39 0.98,-1.07 v 0 0 q 0.59,-0.68 1.17,-0.29 v 0 0 q 0.98,0.97 1.27,2.05 v 0 0 q 0.29,1.07 0.1,1.46 v 0 0 q -1.56,1.56 -1.66,2.35 v 0 0 q -0.1,0.78 -0.49,1.17 v 0 0 q -0.98,0.97 -2.93,1.76 v 0 0 q -1.76,0.78 -2.05,1.27 v 0 0 q -0.29,0.48 -0.68,0.87 v 0 0 q -0.39,0.39 -1.08,0.88 v 0 0 q -0.68,0.49 -1.07,0.88 v 0 0 q -0.39,0.59 -1.08,0.69 v 0 0 q -0.68,0.09 -1.27,0.29 v 0 0 q -1.17,0.98 -1.95,1.76 v 0 0 q -0.78,0.78 -1.76,1.75 v 0 0 q -1.56,1.57 -1.95,2.25 v 0 0 q -0.39,0.68 -2.15,1.86 v 0 0 q -0.98,0.58 -1.95,1.17 v 0 0 q -0.98,0.58 -1.96,1.17 v 0 0 q -2.73,1.37 -5.46,3.32 v 0 0 q -2.74,1.95 -5.47,3.91 v 0 0 q -1.96,1.17 -4.01,2.05 v 0 0 q -2.05,0.88 -3.81,2.05 v 0 0 q -0.78,0 -1.07,-0.1 v 0 0 q -0.29,-0.1 -1.07,0.29 v 0 0 q -0.98,-0.58 -1.96,-0.09 v 0 0 q -0.97,0.48 -1.95,0.09 v 0 0 q -1.95,-1.56 -2.64,-1.95 v 0 0 q -0.68,-0.39 -1.07,-0.98 v 0 0 q -0.39,-0.97 -0.29,-2.15 v 0 0 q 0.09,-1.17 -0.49,-1.95 v 0 0 q 0,-4.3 0.29,-8.2 v 0 0 q 0.29,-3.91 1.27,-8.2 v 0 0 q 0.2,-1.37 0.78,-3.81 v 0 0 q 0.59,-2.44 0.98,-4.79 v 0 0 q 0.39,-2.34 0.58,-4.1 v 0 0 q 0.2,-1.76 -0.39,-2.15 v 0 0 q -2.14,1.17 -4.39,3.52 v 0 0 q -2.25,2.34 -4.2,3.9 v 0 0 q -1.56,1.18 -3.03,2.15 v 0 0 q -1.46,0.98 -3.02,2.15 v 0 0 q -1.37,0.98 -2.35,1.95 v 0 0 q -0.98,0.98 -2.15,2.35 v 0 0 q -1.36,1.36 -2.54,2.63 v 0 0 q -1.17,1.27 -2.73,2.45 v 0 0 q -0.78,0.78 -1.47,1.27 v 0 0 q -0.68,0.48 -1.26,1.07 v 0 0 q -0.98,0.98 -1.86,1.85 v 0 0 q -0.88,0.88 -2.25,1.47 v 0 0 q -1.17,1.56 -3.02,3.52 v 0 0 q -1.86,1.95 -3.71,4.19 v 0 0 q -1.86,2.25 -3.62,4.4 v 0 0 q -1.76,2.15 -2.73,3.91 v 0 0 q -2.35,1.95 -4.98,3.41 v 0 0 q -2.64,1.47 -6.35,0.3 v 0 0 q -1.95,-1.18 -2.54,-1.96 v 0 0 Q 883.98,1.17 883.2,0.78 v 0 0 q 0.2,-2.15 0.39,-4.1 v 0 0 q 0.2,-1.95 1.18,-4.1 v 0 0 q 0.19,-0.39 0.48,-0.88 v 0 0 q 0.3,-0.49 0.69,-1.08 v 0 0 q 0.97,-1.75 1.27,-3.9 v 0 0 q 0.29,-2.15 1.27,-4.1 v 0 0 q 1.17,-1.96 1.46,-3.23 v 0 0 q 0.29,-1.27 0.88,-2.24 v 0 0 q 0.39,-0.98 1.07,-1.86 v 0 0 q 0.69,-0.88 1.08,-1.85 v 0 0 q 0.39,-0.98 1.37,-2.25 v 0 0 q 0.97,-1.27 1.36,-2.24 v 0 0 q 0.59,-2.15 1.37,-4.3 v 0 0 q 0.78,-2.15 1.76,-4.3 v 0 0 q 0.39,-1.37 0.78,-2.64 v 0 0 q 0.39,-1.26 0.98,-2.44 v 0 0 q 0.97,-2.15 1.95,-4.2 v 0 0 q 0.98,-2.05 1.95,-4.2 v 0 0 q 0.59,-1.17 1.08,-2.05 v 0 0 q 0.48,-0.87 1.27,-1.85 v 0 0 q 0.58,-0.98 1.07,-1.95 v 0 0 q 0.49,-0.98 1.07,-1.96 v 0 0 q 0.59,-0.97 1.08,-2.24 v 0 0 q 0.49,-1.27 1.46,-2.45 v 0 0 q 1.37,-1.56 2.15,-2.92 v 0 0 q 0.78,-1.37 2.54,-1.76 v 0 0 q 0.78,0.39 1.66,0 v 0 0 q 0.88,-0.39 1.76,-0.69 v 0 0 q 0.88,-0.29 1.66,-0.39 v 0 0 q 0.78,-0.09 1.37,0.69 v 0 0 q 2.54,1.56 3.71,2.73 v 0 0 q 1.17,1.17 1.56,2.15 v 0 0 q 0.98,1.76 0.2,3.61 v 0 0 q -0.79,1.86 -2.74,3.23 v 0 0 q -0.78,3.32 -2.73,6.25 v 0 0 q -1.96,2.93 -3.52,5.66 v 0 0 q -0.39,0.98 -0.78,1.95 v 0 0 q -0.39,0.98 -0.78,1.96 v 0 0 q -1.17,2.73 -2.44,5.46 v 0 0 q -1.27,2.74 -2.84,5.28 v 0 0 q -0.78,1.56 -1.36,2.54 v 0 0 q -0.59,0.97 -1.17,1.66 v 0 0 q -0.59,0.68 -0.98,1.66 v 0 0 q -0.39,0.97 -0.98,2.54 z"
         fill="#f7c61d"
         id="path283" />
    </g>
  </g>
</svg>
